<svg width="155" height="46" viewBox="0 0 155 46" fill="none" xmlns="http://www.w3.org/2000/svg">
<path d="M153.419 40.1138C153.419 42.4846 151.458 44.4051 149.034 44.4051H5.52097C3.09724 44.4051 1.12988 42.4846 1.12988 40.1138V5.89189C1.12988 3.52214 3.09724 1.59497 5.52097 1.59497H149.032C151.459 1.59497 153.418 3.52214 153.418 5.89189L153.419 40.1138Z" fill="black"/>
<path d="M148.571 1.64685C151.212 1.64685 153.361 3.742 153.361 6.3168V39.6835C153.361 42.2583 151.212 44.3535 148.571 44.3535H5.97813C3.33731 44.3535 1.18843 42.2583 1.18843 39.6835V6.3168C1.18843 3.742 3.33731 1.64685 5.97813 1.64685H148.571ZM148.571 0.75568H5.97813C2.84251 0.75568 0.274414 3.25957 0.274414 6.3168V39.6835C0.274414 42.7407 2.84251 45.2446 5.97813 45.2446H148.571C151.707 45.2446 154.275 42.7407 154.275 39.6835V6.3168C154.275 3.25957 151.707 0.75568 148.571 0.75568Z" fill="#A6A6A6"/>
<path d="M34.6432 22.7599C34.6101 19.1753 37.6536 17.4313 37.7928 17.3501C36.0691 14.8999 33.3975 14.5651 32.4587 14.5384C30.2148 14.3082 28.0383 15.8475 26.8953 15.8475C25.7294 15.8475 23.9693 14.5606 22.0722 14.5985C19.631 14.6352 17.3473 16.0132 16.0947 18.1531C13.5098 22.5164 15.4377 28.9283 17.9142 32.4552C19.1531 34.1825 20.6007 36.1111 22.4954 36.0432C24.3491 35.9687 25.0416 34.891 27.2786 34.891C29.495 34.891 30.1453 36.0432 32.0777 35.9999C34.0671 35.9687 35.3197 34.2648 36.5152 32.5219C37.9468 30.5422 38.5217 28.5924 38.5445 28.4923C38.4978 28.4768 34.6809 27.0565 34.6432 22.7599Z" fill="white"/>
<path d="M30.9928 12.2183C31.9898 11.0026 32.672 9.34876 32.4826 7.67041C31.0396 7.73269 29.2349 8.64361 28.1957 9.83257C27.2763 10.8803 26.455 12.5976 26.6671 14.2125C28.2881 14.3304 29.9525 13.415 30.9928 12.2183Z" fill="white"/>
<path d="M61.4696 35.7949H58.8789L57.4598 31.4472H52.5273L51.1755 35.7949H48.6533L53.5403 20.9934H56.5587L61.4696 35.7949ZM57.0321 29.6232L55.7487 25.7582C55.613 25.3633 55.3586 24.4335 54.9833 22.9698H54.9377C54.7882 23.5993 54.5475 24.5292 54.2167 25.7582L52.9562 29.6232H57.0321Z" fill="white"/>
<path d="M74.0367 30.3274C74.0367 32.1425 73.5336 33.5773 72.5275 34.6306C71.6263 35.5682 70.5073 36.0364 69.1714 36.0364C67.7296 36.0364 66.6938 35.5315 66.0629 34.5216H66.0173V40.1439H63.5852V28.6357C63.5852 27.4946 63.5544 26.3234 63.4951 25.1222H65.634L65.7698 26.8139H65.8154C66.6265 25.5393 67.8573 24.9031 69.5091 24.9031C70.8004 24.9031 71.8784 25.4002 72.7408 26.3957C73.6055 27.3922 74.0367 28.7024 74.0367 30.3274ZM71.559 30.4141C71.559 29.3753 71.3195 28.5189 70.8381 27.8449C70.3122 27.142 69.6061 26.7905 68.7209 26.7905C68.1208 26.7905 67.5756 26.9863 67.0885 27.3722C66.6002 27.7615 66.2808 28.2698 66.1314 28.8993C66.0561 29.1929 66.0184 29.4332 66.0184 29.6222V31.4018C66.0184 32.1781 66.2626 32.8332 66.7508 33.3682C67.239 33.9032 67.8733 34.1701 68.6536 34.1701C69.5696 34.1701 70.2825 33.8253 70.7924 33.138C71.3035 32.4495 71.559 31.5419 71.559 30.4141Z" fill="white"/>
<path d="M86.6274 30.3274C86.6274 32.1425 86.1243 33.5773 85.117 34.6306C84.217 35.5682 83.0979 36.0364 81.7621 36.0364C80.3202 36.0364 79.2844 35.5315 78.6547 34.5216H78.6091V40.1439H76.177V28.6357C76.177 27.4946 76.1462 26.3234 76.0869 25.1222H78.2258L78.3616 26.8139H78.4072C79.2171 25.5393 80.448 24.9031 82.1009 24.9031C83.3911 24.9031 84.4691 25.4002 85.3338 26.3957C86.195 27.3922 86.6274 28.7024 86.6274 30.3274ZM84.1497 30.4141C84.1497 29.3753 83.909 28.5189 83.4276 27.8449C82.9017 27.142 82.1979 26.7905 81.3115 26.7905C80.7103 26.7905 80.1662 26.9863 79.678 27.3722C79.1897 27.7615 78.8715 28.2698 78.722 28.8993C78.6479 29.1929 78.6091 29.4332 78.6091 29.6222V31.4018C78.6091 32.1781 78.8532 32.8332 79.3392 33.3682C79.8274 33.9021 80.4617 34.1701 81.2442 34.1701C82.1602 34.1701 82.8732 33.8253 83.3831 33.138C83.8942 32.4495 84.1497 31.5419 84.1497 30.4141Z" fill="white"/>
<path d="M100.704 31.6442C100.704 32.9032 100.256 33.9275 99.3557 34.7183C98.3667 35.5825 96.9898 36.0141 95.2206 36.0141C93.587 36.0141 92.2774 35.7071 91.2861 35.092L91.8497 33.1156C92.9174 33.7451 94.0889 34.061 95.3654 34.061C96.2814 34.061 96.9944 33.8586 97.5066 33.456C98.0165 33.0533 98.2709 32.5128 98.2709 31.8388C98.2709 31.2382 98.061 30.7321 97.6401 30.3217C97.2214 29.9113 96.5221 29.5298 95.5457 29.1772C92.8877 28.2107 91.5599 26.7949 91.5599 24.933C91.5599 23.7162 92.0253 22.7186 92.9573 21.9422C93.8859 21.1648 95.1247 20.7766 96.6739 20.7766C98.0553 20.7766 99.2029 21.0113 100.119 21.4795L99.5109 23.4126C98.6553 22.9588 97.688 22.7319 96.6054 22.7319C95.7499 22.7319 95.0814 22.9377 94.6023 23.347C94.1973 23.7129 93.9943 24.1589 93.9943 24.6872C93.9943 25.2722 94.2258 25.756 94.6912 26.1364C95.0962 26.4879 95.832 26.8683 96.8997 27.2787C98.2059 27.7914 99.1652 28.3909 99.7824 29.0783C100.397 29.7634 100.704 30.6209 100.704 31.6442Z" fill="white"/>
<path d="M108.746 26.9015H106.065V32.0834C106.065 33.4014 106.537 34.0598 107.484 34.0598C107.919 34.0598 108.279 34.0231 108.564 33.9497L108.632 35.7504C108.152 35.925 107.522 36.0129 106.74 36.0129C105.78 36.0129 105.029 35.727 104.487 35.1565C103.948 34.5848 103.676 33.626 103.676 32.2791V26.8993H102.079V25.1197H103.676V23.1656L106.065 22.4626V25.1197H108.746V26.9015Z" fill="white"/>
<path d="M120.84 30.3706C120.84 32.0112 120.359 33.3581 119.398 34.4113C118.391 35.4958 117.054 36.0363 115.387 36.0363C113.781 36.0363 112.502 35.5169 111.549 34.4781C110.595 33.4393 110.118 32.1279 110.118 30.5475C110.118 28.8936 110.609 27.5389 111.593 26.4856C112.575 25.4312 113.901 24.9041 115.567 24.9041C117.174 24.9041 118.466 25.4235 119.441 26.4634C120.375 27.4722 120.84 28.7746 120.84 30.3706ZM118.317 30.4474C118.317 29.4631 118.101 28.6189 117.664 27.9148C117.154 27.0629 116.425 26.638 115.481 26.638C114.503 26.638 113.761 27.064 113.251 27.9148C112.814 28.62 112.598 29.4775 112.598 30.4919C112.598 31.4762 112.814 32.3204 113.251 33.0233C113.777 33.8752 114.511 34.3001 115.459 34.3001C116.388 34.3001 117.117 33.8664 117.642 33.001C118.091 32.2837 118.317 31.4306 118.317 30.4474Z" fill="white"/>
<path d="M128.746 27.2076C128.506 27.1642 128.249 27.142 127.98 27.142C127.124 27.142 126.462 27.4567 125.997 28.0874C125.592 28.6435 125.389 29.3464 125.389 30.195V35.7951H122.958L122.981 28.4833C122.981 27.2532 122.95 26.1332 122.89 25.1233H125.008L125.097 27.1653H125.164C125.421 26.4635 125.826 25.8985 126.38 25.4748C126.922 25.0933 127.507 24.9031 128.138 24.9031C128.363 24.9031 128.566 24.9186 128.746 24.9465V27.2076Z" fill="white"/>
<path d="M139.623 29.9534C139.623 30.3783 139.594 30.7364 139.534 31.029H132.238C132.266 32.0833 132.619 32.8897 133.296 33.4458C133.911 33.943 134.706 34.1921 135.683 34.1921C136.763 34.1921 137.749 34.0242 138.635 33.6872L139.016 35.3333C137.98 35.7737 136.757 35.9928 135.346 35.9928C133.649 35.9928 132.316 35.5057 131.347 34.5325C130.379 33.5593 129.895 32.2524 129.895 30.613C129.895 29.0036 130.345 27.6634 131.247 26.5945C132.192 25.4534 133.468 24.8828 135.075 24.8828C136.652 24.8828 137.847 25.4534 138.658 26.5945C139.3 27.501 139.623 28.6221 139.623 29.9534ZM137.304 29.3384C137.32 28.6355 137.161 28.0282 136.831 27.5154C136.41 26.8559 135.764 26.5267 134.893 26.5267C134.098 26.5267 133.451 26.8481 132.957 27.4932C132.552 28.0059 132.312 28.621 132.238 29.3373H137.304V29.3384Z" fill="white"/>
<path d="M56.228 11.8878C56.228 13.1969 55.8253 14.1824 55.0211 14.8441C54.2762 15.4547 53.2176 15.7606 51.8464 15.7606C51.1665 15.7606 50.5848 15.7317 50.0977 15.6738V8.52114C50.7331 8.42103 51.4175 8.36987 52.1567 8.36987C53.4628 8.36987 54.4473 8.64682 55.1112 9.2007C55.855 9.82689 56.228 10.7222 56.228 11.8878ZM54.9675 11.9201C54.9675 11.0715 54.7371 10.4208 54.2762 9.96703C53.8153 9.51435 53.1423 9.28746 52.2559 9.28746C51.8795 9.28746 51.5589 9.31193 51.2932 9.36309V14.8008C51.4403 14.823 51.7095 14.833 52.1008 14.833C53.0157 14.833 53.7218 14.585 54.2192 14.0889C54.7165 13.5929 54.9675 12.8699 54.9675 11.9201Z" fill="white"/>
<path d="M62.9113 13.0313C62.9113 13.8377 62.6752 14.4984 62.2029 15.0167C61.7079 15.5494 61.0519 15.8152 60.2329 15.8152C59.4435 15.8152 58.8149 15.5605 58.3461 15.0489C57.8784 14.5384 57.6445 13.8944 57.6445 13.1181C57.6445 12.3062 57.8852 11.64 58.3689 11.1228C58.8526 10.6056 59.5028 10.3464 60.3219 10.3464C61.1113 10.3464 61.7455 10.6011 62.2258 11.1116C62.6821 11.6077 62.9113 12.2483 62.9113 13.0313ZM61.6714 13.0692C61.6714 12.5853 61.5641 12.1705 61.3508 11.8246C61.0998 11.4064 60.7428 11.1973 60.2785 11.1973C59.7983 11.1973 59.4332 11.4064 59.1823 11.8246C58.9678 12.1705 58.8617 12.592 58.8617 13.0903C58.8617 13.5741 58.9689 13.989 59.1823 14.3349C59.4412 14.7531 59.8017 14.9622 60.2671 14.9622C60.7234 14.9622 61.0816 14.7497 61.3394 14.3237C61.5607 13.9712 61.6714 13.553 61.6714 13.0692Z" fill="white"/>
<path d="M71.8733 10.4531L70.1907 15.6961H69.0956L68.3986 13.4194C68.2218 12.8511 68.078 12.2861 67.9663 11.7255H67.9446C67.8408 12.3016 67.697 12.8655 67.5122 13.4194L66.7719 15.6961H65.6642L64.082 10.4531H65.3106L65.9186 12.9456C66.0658 13.5351 66.1867 14.0968 66.2837 14.6284H66.3053C66.3943 14.1902 66.5415 13.6319 66.7491 12.9567L67.5122 10.4542H68.4864L69.2176 12.9034C69.3945 13.5006 69.5382 14.0756 69.6488 14.6295H69.6819C69.7629 14.0901 69.885 13.5151 70.047 12.9034L70.6995 10.4542H71.8733V10.4531Z" fill="white"/>
<path d="M78.071 15.6962H76.8755V12.6931C76.8755 11.7678 76.515 11.3051 75.7918 11.3051C75.437 11.3051 75.1507 11.4319 74.9282 11.6866C74.7081 11.9413 74.5963 12.2416 74.5963 12.5853V15.695H73.4008V11.9513C73.4008 11.4908 73.3859 10.9914 73.3574 10.4509H74.408L74.4639 11.2706H74.497C74.6362 11.0159 74.8438 10.8057 75.1164 10.6378C75.4404 10.442 75.8032 10.343 76.2001 10.343C76.7021 10.343 77.1196 10.501 77.4515 10.8179C77.8645 11.2061 78.071 11.7856 78.071 12.5552V15.6962Z" fill="white"/>
<path d="M81.3682 15.6961H80.1738V8.04736H81.3682V15.6961Z" fill="white"/>
<path d="M88.4065 13.0313C88.4065 13.8377 88.1703 14.4984 87.6981 15.0167C87.203 15.5494 86.5459 15.8152 85.728 15.8152C84.9375 15.8152 84.3089 15.5605 83.8412 15.0489C83.3735 14.5384 83.1396 13.8944 83.1396 13.1181C83.1396 12.3062 83.3803 11.64 83.864 11.1228C84.3477 10.6056 84.9979 10.3464 85.8158 10.3464C86.6064 10.3464 87.2395 10.6011 87.7209 11.1116C88.1772 11.6077 88.4065 12.2483 88.4065 13.0313ZM87.1653 13.0692C87.1653 12.5853 87.0581 12.1705 86.8448 11.8246C86.595 11.4064 86.2368 11.1973 85.7736 11.1973C85.2922 11.1973 84.9272 11.4064 84.6774 11.8246C84.4629 12.1705 84.3568 12.592 84.3568 13.0903C84.3568 13.5741 84.464 13.989 84.6774 14.3349C84.9363 14.7531 85.2968 14.9622 85.7622 14.9622C86.2185 14.9622 86.5756 14.7497 86.8334 14.3237C87.0558 13.9712 87.1653 13.553 87.1653 13.0692Z" fill="white"/>
<path d="M94.192 15.6962H93.1186L93.0296 15.0923H92.9965C92.6292 15.5739 92.1056 15.8152 91.4257 15.8152C90.9181 15.8152 90.5074 15.6562 90.1983 15.3403C89.9177 15.0534 89.7773 14.6963 89.7773 14.2726C89.7773 13.6319 90.0511 13.1437 90.6021 12.8056C91.1519 12.4674 91.9254 12.3017 92.9212 12.3095V12.2116C92.9212 11.5209 92.5493 11.1762 91.8044 11.1762C91.274 11.1762 90.8063 11.3063 90.4025 11.5643L90.1595 10.7991C90.6591 10.4977 91.2763 10.3464 92.0041 10.3464C93.4095 10.3464 94.1144 11.0694 94.1144 12.5153V14.4461C94.1144 14.9699 94.1407 15.387 94.192 15.6962ZM92.9509 13.8944V13.0858C91.6322 13.0636 90.9728 13.4162 90.9728 14.1425C90.9728 14.4161 91.0481 14.6207 91.2021 14.7575C91.3561 14.8943 91.5523 14.9622 91.7862 14.9622C92.0486 14.9622 92.2938 14.881 92.5174 14.7197C92.7421 14.5573 92.8802 14.3516 92.9315 14.0991C92.944 14.0424 92.9509 13.9734 92.9509 13.8944Z" fill="white"/>
<path d="M100.985 15.6961H99.924L99.8681 14.8542H99.835C99.4962 15.4948 98.919 15.8151 98.1079 15.8151C97.46 15.8151 96.9204 15.5671 96.4927 15.0711C96.0649 14.575 95.8516 13.931 95.8516 13.1402C95.8516 12.2916 96.0831 11.6043 96.5486 11.0793C96.9991 10.5899 97.5513 10.3452 98.2083 10.3452C98.9304 10.3452 99.4358 10.5821 99.7232 11.057H99.746V8.04736H100.943V14.2836C100.943 14.7941 100.956 15.2646 100.985 15.6961ZM99.746 13.485V12.6108C99.746 12.4596 99.7346 12.3372 99.713 12.2438C99.6457 11.9635 99.5008 11.7277 99.2806 11.5375C99.0582 11.3473 98.7901 11.2517 98.481 11.2517C98.0349 11.2517 97.6859 11.4241 97.4292 11.77C97.1748 12.1159 97.0459 12.5574 97.0459 13.0969C97.0459 13.6152 97.168 14.0356 97.4132 14.3592C97.6722 14.704 98.0212 14.8764 98.4582 14.8764C98.8506 14.8764 99.1643 14.7329 99.4027 14.4449C99.6331 14.1791 99.746 13.8587 99.746 13.485Z" fill="white"/>
<path d="M111.209 13.0313C111.209 13.8377 110.973 14.4984 110.501 15.0167C110.006 15.5494 109.351 15.8152 108.531 15.8152C107.742 15.8152 107.114 15.5605 106.644 15.0489C106.176 14.5384 105.942 13.8944 105.942 13.1181C105.942 12.3062 106.183 11.64 106.667 11.1228C107.15 10.6056 107.801 10.3464 108.621 10.3464C109.409 10.3464 110.044 10.6011 110.524 11.1116C110.98 11.6077 111.209 12.2483 111.209 13.0313ZM109.97 13.0692C109.97 12.5853 109.863 12.1705 109.65 11.8246C109.398 11.4064 109.042 11.1973 108.576 11.1973C108.097 11.1973 107.732 11.4064 107.48 11.8246C107.266 12.1705 107.16 12.592 107.16 13.0903C107.16 13.5741 107.267 13.989 107.48 14.3349C107.739 14.7531 108.1 14.9622 108.565 14.9622C109.021 14.9622 109.381 14.7497 109.638 14.3237C109.859 13.9712 109.97 13.553 109.97 13.0692Z" fill="white"/>
<path d="M117.637 15.6962H116.443V12.6931C116.443 11.7678 116.082 11.3051 115.358 11.3051C115.003 11.3051 114.717 11.4319 114.496 11.6866C114.274 11.9413 114.164 12.2416 114.164 12.5853V15.695H112.967V11.9513C112.967 11.4908 112.953 10.9914 112.925 10.4509H113.974L114.03 11.2706H114.063C114.204 11.0159 114.411 10.8057 114.683 10.6378C115.008 10.442 115.369 10.343 115.768 10.343C116.268 10.343 116.686 10.501 117.018 10.8179C117.432 11.2061 117.637 11.7856 117.637 12.5552V15.6962Z" fill="white"/>
<path d="M125.683 11.3263H124.367V13.8733C124.367 14.5206 124.601 14.8443 125.064 14.8443C125.278 14.8443 125.456 14.8265 125.597 14.7898L125.627 15.674C125.391 15.7607 125.081 15.8041 124.699 15.8041C124.227 15.8041 123.859 15.664 123.593 15.3837C123.326 15.1034 123.194 14.6318 123.194 13.9701V11.3263H122.408V10.4532H123.194V9.49225L124.366 9.14746V10.4521H125.682V11.3263H125.683Z" fill="white"/>
<path d="M132.012 15.6961H130.815V12.7154C130.815 11.7755 130.455 11.3051 129.733 11.3051C129.178 11.3051 128.8 11.5776 128.592 12.1226C128.557 12.2371 128.536 12.3773 128.536 12.5419V15.695H127.342V8.04736H128.536V11.2072H128.559C128.935 10.6322 129.475 10.3452 130.174 10.3452C130.669 10.3452 131.079 10.5032 131.404 10.8201C131.809 11.215 132.012 11.8022 132.012 12.5786V15.6961Z" fill="white"/>
<path d="M138.541 12.8267C138.541 13.0358 138.525 13.2115 138.496 13.355H134.911C134.927 13.8733 135.098 14.2681 135.43 14.5417C135.733 14.7864 136.125 14.9088 136.604 14.9088C137.134 14.9088 137.618 14.8265 138.054 14.6608L138.241 15.4704C137.731 15.6862 137.131 15.7941 136.436 15.7941C135.603 15.7941 134.947 15.555 134.473 15.0767C133.996 14.5985 133.76 13.9567 133.76 13.1515C133.76 12.3607 133.98 11.7022 134.424 11.1773C134.887 10.6167 135.513 10.3364 136.304 10.3364C137.077 10.3364 137.665 10.6167 138.062 11.1773C138.382 11.6222 138.541 12.1727 138.541 12.8267ZM137.4 12.5253C137.409 12.1794 137.33 11.8813 137.168 11.6299C136.961 11.3063 136.645 11.1439 136.217 11.1439C135.827 11.1439 135.509 11.3018 135.266 11.6188C135.067 11.8713 134.95 12.1727 134.911 12.5253H137.4Z" fill="white"/>
</svg>
