<svg width="100" height="30" viewBox="0 0 100 30" fill="none" xmlns="http://www.w3.org/2000/svg">
<path fill-rule="evenodd" clip-rule="evenodd" d="M0 10.5527L8.43626 21.1947L0 28.1854V10.5527Z" fill="#F15A23"/>
<path fill-rule="evenodd" clip-rule="evenodd" d="M3.39502 28.1863L9.74288 22.876L14.1304 28.1863H3.39502Z" fill="#F15A23"/>
<path fill-rule="evenodd" clip-rule="evenodd" d="M0 4.85847L2.20155 7.64334L11.2535 18.9545L14.1867 16.6187C14.1867 16.6187 11.7516 13.7519 10.1166 10.5529C6.91989 4.29837 9.18307 0.404297 9.18307 0.404297H0V4.85847Z" fill="#F15A23"/>
<path fill-rule="evenodd" clip-rule="evenodd" d="M12.5439 20.7008L15.5312 18.2334C15.5312 18.2334 18.3842 21.989 21.6923 22.8754C26.0275 24.037 27.9469 21.1951 27.9469 21.1951V28.1857H18.4251L20.5721 26.3294C20.5721 26.3294 19.4519 27.0762 16.7122 25.1785C15.0952 24.0585 12.5439 20.7008 12.5439 20.7008Z" fill="#F15A23"/>
<path fill-rule="evenodd" clip-rule="evenodd" d="M12.8181 0.383789C12.8181 0.383789 11.8652 1.68198 12.5435 4.85833C13.2686 8.25343 16.1521 11.8467 16.1454 11.7663C16.1454 11.7663 16.3308 8.19829 18.4246 6.10446C22.8877 1.64143 27.9464 4.29823 27.9464 4.29823V0.404158L12.8181 0.383789Z" fill="#F15A23"/>
<path fill-rule="evenodd" clip-rule="evenodd" d="M27.9465 9.00347C27.9465 9.00347 25.124 6.58594 22.6702 6.58594C19.5312 6.58594 17.8179 9.29592 17.8179 11.2617C17.8179 14.1251 19.1922 15.7161 20.5717 17.0956C22.5541 19.078 24.9659 21.216 27.9465 19.4952C27.9465 16.2383 27.9465 9.00347 27.9465 9.00347Z" fill="#F15A23"/>
<path fill-rule="evenodd" clip-rule="evenodd" d="M60.0898 0.675781H66.7501C66.7501 0.675781 72.6502 9.60938 75.5498 13.3004C78.4494 16.9913 81.5705 21.1955 81.5705 21.1955C81.5705 21.1955 81.5705 9.00392 81.5705 2.67645C81.5705 1.87663 79.4705 0.675781 79.4705 0.675781H87.1507C87.1507 0.675781 84.6306 1.71115 84.6306 2.67645C84.6306 10.5535 84.6306 29.6173 84.6306 29.6173C84.6306 29.6173 82.2125 28.2764 79.4705 25.0901C76.3896 21.5101 65.43 7.05659 65.43 7.05659C65.43 7.05659 65.43 20.7012 65.43 25.7772C65.43 26.7359 67.5301 28.1861 67.5301 28.1861H60.0898C60.0898 28.1861 62.1299 26.7242 62.1299 25.7772C62.1299 18.9551 62.1299 9.00392 62.1299 2.67645C62.1299 1.82629 60.0898 0.675781 60.0898 0.675781Z" fill="#005E6A"/>
<path fill-rule="evenodd" clip-rule="evenodd" d="M91.4521 0.675781H100C100 0.675781 97.7048 1.763 97.7048 2.67645C97.7048 9.00392 97.7048 19.4956 97.7048 25.7772C97.7048 26.7754 100 28.1861 100 28.1861H91.4521C91.4521 28.1861 93.5891 26.7432 93.5891 25.7772C93.5891 18.2338 93.5891 9.00392 93.5891 2.67645C93.5891 1.79825 91.4521 0.675781 91.4521 0.675781Z" fill="#005E6A"/>
<path fill-rule="evenodd" clip-rule="evenodd" d="M34.9409 0.675781C34.9409 0.675781 37.157 1.78077 37.157 2.67645C37.157 9.00392 37.157 18.2338 37.157 25.7772C37.157 26.7592 34.9409 28.1861 34.9409 28.1861C34.9409 28.1861 46.0121 28.1861 47.6045 28.1861C48.396 28.1861 57.2605 26.7366 57.2605 19.9024C57.2605 13.0683 50.3747 12.4284 50.3747 12.4284C50.3747 12.4284 54.5695 11.2622 54.5695 6.58639C54.5695 1.5464 48.396 0.675781 47.6045 0.675781C45.9597 0.675781 34.9409 0.675781 34.9409 0.675781ZM41.6685 11.9755V3.37487C41.6685 3.37487 45.3392 3.37487 46.813 3.37487C47.6045 3.37487 50.3747 4.29897 50.3747 7.72752C50.3747 10.5535 47.6045 11.9755 46.813 11.9755C45.0187 11.9755 41.6685 11.9755 41.6685 11.9755ZM41.6685 14.2312C41.6685 14.2312 46.813 14.2312 47.6045 14.2312C48.396 14.2312 53.0657 15.4441 53.0657 19.4956C53.0657 23.6263 48.396 25.0901 47.6045 25.0901C46.813 25.0901 41.6685 25.0901 41.6685 25.0901V14.2312Z" fill="#005E6A"/>
</svg>
