<svg width="42" height="42" viewBox="0 0 42 42" fill="none" xmlns="http://www.w3.org/2000/svg">
<mask id="mask0_538_4376" style="mask-type:alpha" maskUnits="userSpaceOnUse" x="3" y="3" width="36" height="36">
<path fill-rule="evenodd" clip-rule="evenodd" d="M29.75 7V19.25C29.75 21.175 28.175 22.75 26.25 22.75H10.5L3.5 29.75V7C3.5 5.075 5.075 3.5 7 3.5H26.25C28.175 3.5 29.75 5.075 29.75 7ZM33.25 10.5H35C36.925 10.5 38.5 12.075 38.5 14V38.5L31.5 31.5H14C12.075 31.5 10.5 29.925 10.5 28V26.25H31.5C32.4625 26.25 33.25 25.4625 33.25 24.5V10.5Z" fill="black"/>
</mask>
<g mask="url(#mask0_538_4376)">
<path d="M0 0H42V42H0V0Z" fill="white"/>
</g>
</svg>
