<svg width="355" height="349" viewBox="0 0 355 349" fill="none" xmlns="http://www.w3.org/2000/svg">
<path d="M180 249.5C180 287.332 149.331 318 111.5 318C73.6684 318 42.9999 287.332 42.9999 249.5C42.9999 211.668 73.6684 181 111.5 181C149.331 181 180 211.668 180 249.5ZM49.8499 249.5C49.8499 283.548 77.4515 311.15 111.5 311.15C145.548 311.15 173.15 283.548 173.15 249.5C173.15 215.452 145.548 187.85 111.5 187.85C77.4515 187.85 49.8499 215.452 49.8499 249.5Z" fill="#EFF9FF"/>
<path d="M473 174.5C473 270.874 394.874 349 298.5 349C202.126 349 124 270.874 124 174.5C124 78.1263 202.126 0 298.5 0C394.874 0 473 78.1263 473 174.5Z" fill="#EFF9FF"/>
<path d="M102 199C102 227.167 79.1664 250 50.9999 250C22.8334 250 -0.00012207 227.167 -0.00012207 199C-0.00012207 170.833 22.8334 148 50.9999 148C79.1664 148 102 170.833 102 199Z" fill="#EFF9FF"/>
</svg>
