<svg width="28" height="28" viewBox="0 0 28 28" fill="none" xmlns="http://www.w3.org/2000/svg">
<g clip-path="url(#clip0_538_4336)">
<path d="M13.5693 22.4873C9.33301 22.4873 6.5293 20.0439 6.5293 16.3789C6.5293 13.1445 8.05859 12.0986 8.05859 10.0859C8.05859 9.65527 7.99707 9.16309 7.99707 8.89941C7.99707 8.44238 8.27832 8.15234 8.69141 8.15234C9.47363 8.15234 10.335 8.78516 10.8535 9.86621C10.8887 9.69043 10.8975 9.53223 10.8975 9.35645C10.8887 7.66895 9.87793 6.24512 8.79688 4.94434C8.60352 4.71582 8.48926 4.45215 8.48926 4.20605C8.48926 3.56445 9.07812 3.23047 9.97461 3.23047C14.668 3.23047 21.4619 6.55273 21.4619 14.498C21.4619 19.2969 18.2979 22.4873 13.5693 22.4873ZM13.666 21.0107C17.4102 21.0107 19.915 18.374 19.915 14.4453C19.915 9.13672 16.2061 5.14648 10.4141 4.67188C11.5391 5.95508 12.2158 7.67773 12.2158 9.45312C12.2158 10.71 11.6797 12.5293 10.8799 12.5293C10.6865 12.5293 10.5547 12.415 10.5107 12.1689C10.3086 11.2637 9.97461 10.543 9.50879 10.0244C9.51758 10.0947 9.51758 10.1562 9.51758 10.2266C9.52637 12.7139 8.01465 13.6016 8.01465 16.3789C8.01465 19.1475 10.2822 21.0107 13.666 21.0107ZM13.7891 19.7803C12.1631 19.7803 11.0908 18.8047 11.0908 17.3545C11.0908 15.8428 12.1543 15.3242 12.2949 14.2871C12.3037 14.1816 12.3916 14.1377 12.4795 14.2168C12.8662 14.5596 13.1211 14.999 13.3232 15.5264C13.7803 14.8496 13.9473 13.5928 13.7979 12.2305C13.7715 12.1074 13.8594 12.0459 13.9648 12.0898C15.8545 12.96 16.8564 14.8232 16.8564 16.5723C16.8564 18.3125 15.8193 19.7803 13.7891 19.7803Z" fill="#323232"/>
</g>
<defs>
<clipPath id="clip0_538_4336">
<rect width="28" height="28" fill="white"/>
</clipPath>
</defs>
</svg>
