<svg width="155" height="46" viewBox="0 0 155 46" fill="none" xmlns="http://www.w3.org/2000/svg">
<path d="M148.578 45.2444H6.18122C3.04992 45.2444 0.485352 42.7405 0.485352 39.6833V6.31656C0.485352 3.25933 3.04992 0.755436 6.18122 0.755436H148.578C151.709 0.755436 154.274 3.25933 154.274 6.31656V39.6833C154.274 42.7405 151.709 45.2444 148.578 45.2444Z" fill="black"/>
<path d="M148.578 1.6466C151.215 1.6466 153.361 3.74176 153.361 6.31656V39.6833C153.361 42.2581 151.215 44.3532 148.578 44.3532H6.18122C3.54404 44.3532 1.39811 42.2581 1.39811 39.6833V6.31656C1.39811 3.74176 3.54404 1.6466 6.18122 1.6466H148.578ZM148.578 0.755436H6.18122C3.04992 0.755436 0.485352 3.25933 0.485352 6.31656V39.6833C0.485352 42.7405 3.04992 45.2444 6.18122 45.2444H148.578C151.709 45.2444 154.274 42.7405 154.274 39.6833V6.31656C154.274 3.25933 151.709 0.755436 148.578 0.755436Z" fill="#A6A6A6"/>
<path d="M54.5028 12.1488C54.5028 13.0775 54.2181 13.8213 53.657 14.376C53.0119 15.0336 52.1718 15.3645 51.1423 15.3645C50.1583 15.3645 49.3182 15.0281 48.629 14.3649C47.9383 13.692 47.5938 12.8662 47.5938 11.8777C47.5938 10.8892 47.9383 10.0634 48.629 9.39604C49.3182 8.72732 50.1583 8.39087 51.1423 8.39087C51.6321 8.39087 52.0992 8.48958 52.5449 8.6731C52.9892 8.858 53.3509 9.10825 53.6129 9.4169L53.0176 10.0036C52.5605 9.47668 51.9383 9.2167 51.1423 9.2167C50.4246 9.2167 49.8023 9.46138 49.274 9.95493C48.7514 10.4499 48.4894 11.0908 48.4894 11.8777C48.4894 12.6646 48.7514 13.3111 49.274 13.806C49.8023 14.294 50.4246 14.5442 51.1423 14.5442C51.9041 14.5442 52.5449 14.294 53.0504 13.8004C53.3836 13.4737 53.573 13.0233 53.6228 12.4477H51.1423V11.6441H54.4516C54.4915 11.8179 54.5028 11.9861 54.5028 12.1488Z" fill="white" stroke="white" stroke-width="0.120648" stroke-miterlimit="10"/>
<path d="M59.7522 9.36258H56.6437V11.4758H59.4461V12.2794H56.6437V14.3926H59.7522V15.2115H55.7637V8.5437H59.7522V9.36258Z" fill="white" stroke="white" stroke-width="0.120648" stroke-miterlimit="10"/>
<path d="M63.4576 15.2115H62.5776V9.36258H60.6709V8.5437H65.3657V9.36258H63.4576V15.2115Z" fill="white" stroke="white" stroke-width="0.120648" stroke-miterlimit="10"/>
<path d="M68.7637 15.2115V8.5437H69.6423V15.2115H68.7637Z" fill="white" stroke="white" stroke-width="0.120648" stroke-miterlimit="10"/>
<path d="M73.5367 15.2115H72.6638V9.36258H70.75V8.5437H75.4505V9.36258H73.5367V15.2115Z" fill="white" stroke="white" stroke-width="0.120648" stroke-miterlimit="10"/>
<path d="M84.3385 14.3538C83.6649 15.0281 82.8305 15.3645 81.8351 15.3645C80.8341 15.3645 79.9996 15.0281 79.3261 14.3538C78.654 13.6809 78.3193 12.8551 78.3193 11.8777C78.3193 10.9003 78.654 10.0745 79.3261 9.4016C79.9996 8.72732 80.8341 8.39087 81.8351 8.39087C82.8248 8.39087 83.6592 8.72732 84.3328 9.40716C85.0106 10.0856 85.3452 10.9059 85.3452 11.8777C85.3452 12.8551 85.0106 13.6809 84.3385 14.3538ZM79.9768 13.7949C80.4838 14.294 81.1003 14.5442 81.8351 14.5442C82.5642 14.5442 83.1865 14.294 83.6877 13.7949C84.1932 13.2958 84.4495 12.6549 84.4495 11.8777C84.4495 11.1005 84.1932 10.4596 83.6877 9.9605C83.1865 9.46139 82.5642 9.21113 81.8351 9.21113C81.1003 9.21113 80.4838 9.46139 79.9768 9.9605C79.4713 10.4596 79.215 11.1005 79.215 11.8777C79.215 12.6549 79.4713 13.2958 79.9768 13.7949Z" fill="white" stroke="white" stroke-width="0.120648" stroke-miterlimit="10"/>
<path d="M86.5801 15.2115V8.5437H87.6481L90.9687 13.7294H91.0072L90.9687 12.4476V8.5437H91.8473V15.2115H90.9303L87.453 9.76993H87.4145L87.453 11.0573V15.2115H86.5801Z" fill="white" stroke="white" stroke-width="0.120648" stroke-miterlimit="10"/>
<path d="M78.1032 24.9491C75.4276 24.9491 73.2418 26.9372 73.2418 29.6802C73.2418 32.401 75.4276 34.4099 78.1032 34.4099C80.7846 34.4099 82.9704 32.401 82.9704 29.6802C82.9704 26.9372 80.7846 24.9491 78.1032 24.9491ZM78.1032 32.5469C76.6351 32.5469 75.3721 31.3638 75.3721 29.6802C75.3721 27.9743 76.6351 26.812 78.1032 26.812C79.5713 26.812 80.8401 27.9743 80.8401 29.6802C80.8401 31.3638 79.5713 32.5469 78.1032 32.5469ZM67.4961 24.9491C64.8148 24.9491 62.6347 26.9372 62.6347 29.6802C62.6347 32.401 64.8148 34.4099 67.4961 34.4099C70.176 34.4099 72.3575 32.401 72.3575 29.6802C72.3575 26.9372 70.176 24.9491 67.4961 24.9491ZM67.4961 32.5469C66.0266 32.5469 64.7592 31.3638 64.7592 29.6802C64.7592 27.9743 66.0266 26.812 67.4961 26.812C68.9642 26.812 70.2273 27.9743 70.2273 29.6802C70.2273 31.3638 68.9642 32.5469 67.4961 32.5469ZM54.874 26.3991V28.4095H59.791C59.6472 29.5328 59.2627 30.3587 58.6732 30.9342C57.9555 31.6294 56.8377 32.401 54.874 32.401C51.8481 32.401 49.4786 30.0166 49.4786 27.0623C49.4786 24.108 51.8481 21.7236 54.874 21.7236C56.5102 21.7236 57.7006 22.3479 58.5792 23.157L60.0302 21.7403C58.8013 20.5947 57.1666 19.7147 54.874 19.7147C50.7246 19.7147 47.2373 23.011 47.2373 27.0623C47.2373 31.1136 50.7246 34.4099 54.874 34.4099C57.1168 34.4099 58.8013 33.6925 60.1256 32.3467C61.4827 31.0218 61.9056 29.1588 61.9056 27.6546C61.9056 27.1874 61.8657 26.7578 61.7945 26.3991H54.874ZM106.487 27.9576C106.087 26.8996 104.852 24.9491 102.338 24.9491C99.8458 24.9491 97.7711 26.8663 97.7711 29.6802C97.7711 32.3301 99.8244 34.4099 102.577 34.4099C104.803 34.4099 106.087 33.085 106.615 32.3134L104.964 31.2387C104.412 32.0256 103.662 32.5469 102.577 32.5469C101.499 32.5469 100.726 32.0645 100.23 31.1136L106.711 28.4957L106.487 27.9576ZM99.88 29.5328C99.8244 27.7088 101.331 26.7745 102.41 26.7745C103.256 26.7745 103.974 27.1874 104.213 27.7783L99.88 29.5328ZM94.6127 34.1221H96.743V20.2193H94.6127V34.1221ZM91.124 26.0029H91.0528C90.5743 25.4496 89.6616 24.9491 88.5053 24.9491C86.0789 24.9491 83.8603 27.0289 83.8603 29.6955C83.8603 32.3467 86.0789 34.4099 88.5053 34.4099C89.6616 34.4099 90.5743 33.9053 91.0528 33.3352H91.124V34.0137C91.124 35.8224 90.1343 36.7943 88.5381 36.7943C87.2366 36.7943 86.4292 35.8767 86.096 35.1051L84.2434 35.86C84.7774 37.114 86.1914 38.6572 88.5381 38.6572C91.0357 38.6572 93.1432 37.2225 93.1432 33.7315V25.2369H91.124V26.0029ZM88.6876 32.5469C87.2195 32.5469 85.9906 31.3471 85.9906 29.6955C85.9906 28.0285 87.2195 26.812 88.6876 26.812C90.1343 26.812 91.2749 28.0285 91.2749 29.6955C91.2749 31.3471 90.1343 32.5469 88.6876 32.5469ZM116.461 20.2193H111.366V34.1221H113.49V28.8544H116.461C118.82 28.8544 121.134 27.1874 121.134 24.5362C121.134 21.8863 118.814 20.2193 116.461 20.2193ZM116.516 26.9205H113.49V22.1532H116.516C118.102 22.1532 119.008 23.4392 119.008 24.5362C119.008 25.6122 118.102 26.9205 116.516 26.9205ZM129.649 24.9227C128.114 24.9227 126.518 25.5844 125.862 27.0512L127.747 27.8228C128.153 27.0512 128.899 26.8009 129.688 26.8009C130.79 26.8009 131.908 27.4474 131.925 28.5888V28.7348C131.54 28.5179 130.717 28.1968 129.705 28.1968C127.674 28.1968 125.605 29.2881 125.605 31.3249C125.605 33.1879 127.269 34.3877 129.138 34.3877C130.568 34.3877 131.357 33.7579 131.852 33.0252H131.925V34.0999H133.977V28.7668C133.977 26.3018 132.092 24.9227 129.649 24.9227ZM129.393 32.5414C128.698 32.5414 127.73 32.2049 127.73 31.3638C127.73 30.2877 128.937 29.8748 129.983 29.8748C130.918 29.8748 131.357 30.0764 131.925 30.342C131.758 31.6294 130.623 32.5414 129.393 32.5414ZM141.453 25.2271L139.011 31.254H138.938L136.413 25.2271H134.122L137.916 33.6494L135.751 38.3361H137.971L143.816 25.2271H141.453ZM122.302 34.1221H124.432V20.2193H122.302V34.1221Z" fill="white"/>
<path d="M12.373 9.14015C12.0384 9.48216 11.8447 10.0146 11.8447 10.7042V35.301C11.8447 35.9906 12.0384 36.5231 12.373 36.8651L12.4556 36.9402L26.5728 23.1625V22.8372L12.4556 9.05951L12.373 9.14015Z" fill="url(#paint0_linear_225_27217)"/>
<path d="M31.2728 27.7573L26.5723 23.1625V22.8371L31.2785 18.2422L31.3839 18.302L36.9573 21.3982C38.5478 22.2768 38.5478 23.7227 36.9573 24.607L31.3839 27.6975L31.2728 27.7573Z" fill="url(#paint1_linear_225_27217)"/>
<path d="M31.3844 27.6976L26.5729 22.9998L12.373 36.8651C12.9013 37.4073 13.7628 37.4727 14.7425 36.9305L31.3844 27.6976Z" fill="url(#paint2_linear_225_27217)"/>
<path d="M31.3844 18.3022L14.7425 9.0694C13.7628 8.53275 12.9013 8.59809 12.373 9.1403L26.5729 23L31.3844 18.3022Z" fill="url(#paint3_linear_225_27217)"/>
<defs>
<linearGradient id="paint0_linear_225_27217" x1="25.3194" y1="35.5572" x2="6.65895" y2="16.4446" gradientUnits="userSpaceOnUse">
<stop stop-color="#00A0FF"/>
<stop offset="0.0066" stop-color="#00A1FF"/>
<stop offset="0.2601" stop-color="#00BEFF"/>
<stop offset="0.5122" stop-color="#00D2FF"/>
<stop offset="0.7604" stop-color="#00DFFF"/>
<stop offset="1" stop-color="#00E3FF"/>
</linearGradient>
<linearGradient id="paint1_linear_225_27217" x1="39.0285" y1="22.9982" x2="11.464" y2="22.9982" gradientUnits="userSpaceOnUse">
<stop stop-color="#FFE000"/>
<stop offset="0.4087" stop-color="#FFBD00"/>
<stop offset="0.7754" stop-color="#FFA500"/>
<stop offset="1" stop-color="#FF9C00"/>
</linearGradient>
<linearGradient id="paint2_linear_225_27217" x1="28.768" y1="20.4461" x2="3.46297" y2="-5.47217" gradientUnits="userSpaceOnUse">
<stop stop-color="#FF3A44"/>
<stop offset="1" stop-color="#C31162"/>
</linearGradient>
<linearGradient id="paint3_linear_225_27217" x1="8.79866" y1="45.0485" x2="20.0985" y2="33.475" gradientUnits="userSpaceOnUse">
<stop stop-color="#32A071"/>
<stop offset="0.0685" stop-color="#2DA771"/>
<stop offset="0.4762" stop-color="#15CF74"/>
<stop offset="0.8009" stop-color="#06E775"/>
<stop offset="1" stop-color="#00F076"/>
</linearGradient>
</defs>
</svg>
