<svg width="28" height="28" viewBox="0 0 28 28" fill="none" xmlns="http://www.w3.org/2000/svg">
<g id="Group">
<path id="Vector" d="M11.081 6.75826C12.7376 4.53693 15.2285 3.88826 17.5198 4.51243C19.9931 5.18559 22.1678 7.31009 22.89 10.2688C22.9273 10.4204 22.96 10.5721 22.9868 10.7238C21.9443 10.3525 20.8104 10.3239 19.7505 10.6421C18.249 9.53143 16.3893 9.34476 14.7361 9.95376C12.6653 10.7179 11.0483 12.6558 10.6738 15.0929C10.1955 18.2161 12.0971 21.0196 14.7863 23.4054L15.239 23.7974C14.8738 23.8231 14.5028 23.7659 14.1481 23.6901C13.9659 23.6511 13.7846 23.6076 13.6045 23.5594L12.978 23.3844C7.40831 21.8176 3.67965 19.3664 2.60981 15.7031C1.75581 12.7794 2.57715 9.85226 4.38315 8.03226C6.05615 6.34643 8.53648 5.66276 11.081 6.75826ZM12.9803 15.4476C13.4796 12.1903 17.2468 10.5849 19.1811 13.3803C19.1997 13.4062 19.2277 13.4239 19.2592 13.4293C19.2906 13.4348 19.3229 13.4276 19.3491 13.4094C22.1223 11.4448 25.1125 14.2413 24.4673 17.4729C24.094 19.3466 22.3556 20.9029 19.2523 22.1396L18.7448 22.3379L18.438 22.4639C18.1731 22.5678 17.8931 22.6506 17.64 22.6063C17.388 22.5619 17.1535 22.3869 16.94 22.2003L16.5783 21.8736C13.8798 19.5508 12.6805 17.4088 12.9803 15.4476Z" fill="#4B4B4B"/>
</g>
</svg>
