<svg width="138" height="43" viewBox="0 0 138 43" fill="none" xmlns="http://www.w3.org/2000/svg">
<g id="Logo EmpathiCare" clip-path="url(#clip0_699_215)">
<path id="Vector" d="M19.1616 22.7959C21.3742 22.7959 23.1679 21.0412 23.1679 18.8767C23.1679 16.7122 21.3742 14.9575 19.1616 14.9575C16.949 14.9575 15.1553 16.7122 15.1553 18.8767C15.1553 21.0412 16.949 22.7959 19.1616 22.7959Z" fill="#6499E9"/>
<path id="Vector_2" d="M24.1231 22.6085C21.3565 23.8259 20.2742 24.7142 19.1648 26.6369V33.8304C20.0689 30.4436 21.2709 28.8745 24.5045 26.6369C28.3231 24.8214 29.8175 23.4287 29.0814 18.9639C27.4543 20.6597 26.4055 21.4861 24.1231 22.6085Z" fill="#6499E9"/>
<path id="Vector_3" d="M14.2022 22.824C16.9713 24.0492 18.0546 24.9432 19.1649 26.8783V34.1182C18.26 30.7096 17.0569 29.1303 13.8205 26.8783C9.99851 25.0511 8.50277 23.6494 9.23957 19.1558C10.8681 20.8626 11.9178 21.6942 14.2022 22.824Z" fill="#6499E9"/>
<path id="Vector_4" d="M11.7579 28.4681C17.2228 32.8793 18.2517 36.2729 19.0738 42.1417C17.1559 38.1002 15.3479 36.6073 10.9738 35.1742C7.36827 34.6795 5.38323 34.3256 2.96118 31.4292C0.396626 27.9869 0.0621967 25.6741 0 21.1522C0.11228 19.7057 0.511078 20.0242 1.39349 21.1522L2.26443 24.7231C2.68871 26.0165 3.13739 26.6668 4.09339 27.7713C5.24882 28.8618 6.09064 29.0585 7.6646 29.2519C5.9387 27.6824 4.84637 26.8605 3.48409 24.7231C3.24532 23.8616 3.54731 23.7712 4.35502 23.8521C7.13953 25.824 8.77353 26.8164 11.7579 28.4681Z" fill="#6499E9"/>
<path id="Vector_5" d="M26.856 28.4639C21.3663 32.8729 20.3327 36.2648 19.5068 42.1307C21.4334 38.0912 23.2498 36.599 27.6438 35.1667C31.2656 34.6722 33.2597 34.3185 35.6928 31.4236C38.269 27.983 38.605 25.6714 38.6674 21.1517C38.5546 19.706 38.154 20.0243 37.2676 21.1517L36.3927 24.7208C35.9665 26.0136 35.5158 26.6636 34.5554 27.7675C33.3947 28.8574 32.5491 29.054 30.968 29.2474C32.7017 27.6786 33.799 26.8572 35.1675 24.7208C35.4074 23.8598 35.104 23.7694 34.2926 23.8503C31.4954 25.8212 29.854 26.8131 26.856 28.4639Z" fill="#6499E9"/>
<path id="Vector_6" fill-rule="evenodd" clip-rule="evenodd" d="M35.8167 21.3274C36.0855 20.1185 36.2273 18.8611 36.2273 17.5703C36.2273 8.14267 28.6627 0.5 19.3312 0.5C9.99973 0.5 2.43506 8.14267 2.43506 17.5703C2.43506 18.8621 2.57709 20.1205 2.84624 21.3302C2.80479 20.8374 2.78362 20.3387 2.78362 19.8348C2.78362 10.4071 10.1923 2.76448 19.3314 2.76448C28.4705 2.76448 35.8791 10.4071 35.8791 19.8348C35.8791 20.3377 35.8581 20.8355 35.8167 21.3274Z" fill="#6499E9"/>
<path id="Vector_7" d="M49.7601 20.4141H54.2534V22.0941H49.7601V20.4141ZM49.9201 24.2541H55.0001V25.9875H47.7734V16.6541H54.8268V18.3875H49.9201V24.2541ZM65.7588 18.7075C66.3276 18.7075 66.8301 18.823 67.2654 19.0541C67.7101 19.2763 68.0568 19.623 68.3054 20.0941C68.5634 20.5563 68.6921 21.1519 68.6921 21.8808V25.9875H66.6121V22.2008C66.6121 21.623 66.4921 21.1963 66.2521 20.9208C66.0121 20.6453 65.6743 20.5075 65.2388 20.5075C64.9365 20.5075 64.6654 20.5786 64.4254 20.7208C64.1854 20.8541 63.9988 21.0586 63.8654 21.3341C63.7321 21.6097 63.6654 21.9608 63.6654 22.3875V25.9875H61.5854V22.2008C61.5854 21.623 61.4654 21.1963 61.2254 20.9208C60.9943 20.6453 60.661 20.5075 60.2254 20.5075C59.9232 20.5075 59.6521 20.5786 59.4121 20.7208C59.1721 20.8541 58.9854 21.0586 58.8521 21.3341C58.7188 21.6097 58.6521 21.9608 58.6521 22.3875V25.9875H56.5721V18.8141H58.5588V20.7741L58.1854 20.2008C58.4343 19.7119 58.7854 19.343 59.2388 19.0941C59.701 18.8363 60.2254 18.7075 60.8121 18.7075C61.4698 18.7075 62.0432 18.8763 62.5321 19.2141C63.0298 19.543 63.3588 20.0497 63.5188 20.7341L62.7854 20.5341C63.0254 19.9741 63.4076 19.5297 63.9321 19.2008C64.4654 18.8719 65.0743 18.7075 65.7588 18.7075ZM74.7968 26.0941C74.1921 26.0941 73.6634 25.9608 73.2101 25.6941C72.7568 25.4275 72.4008 25.023 72.1434 24.4808C71.8941 23.9297 71.7701 23.2363 71.7701 22.4008C71.7701 21.5563 71.8901 20.863 72.1301 20.3208C72.3701 19.7786 72.7168 19.3741 73.1701 19.1075C73.6234 18.8408 74.1654 18.7075 74.7968 18.7075C75.4721 18.7075 76.0768 18.863 76.6101 19.1741C77.1521 19.4763 77.5788 19.903 77.8901 20.4541C78.2101 21.0053 78.3701 21.6541 78.3701 22.4008C78.3701 23.1563 78.2101 23.8097 77.8901 24.3608C77.5788 24.9119 77.1521 25.3386 76.6101 25.6408C76.0768 25.943 75.4721 26.0941 74.7968 26.0941ZM70.5568 28.5741V18.8141H72.5434V20.2808L72.5034 22.4141L72.6368 24.5341V28.5741H70.5568ZM74.4368 24.3875C74.7834 24.3875 75.0901 24.3075 75.3568 24.1475C75.6321 23.9875 75.8501 23.7608 76.0101 23.4675C76.1788 23.1653 76.2634 22.8097 76.2634 22.4008C76.2634 21.983 76.1788 21.6275 76.0101 21.3341C75.8501 21.0408 75.6321 20.8141 75.3568 20.6541C75.0901 20.4941 74.7834 20.4141 74.4368 20.4141C74.0901 20.4141 73.7788 20.4941 73.5034 20.6541C73.2274 20.8141 73.0101 21.0408 72.8501 21.3341C72.6901 21.6275 72.6101 21.983 72.6101 22.4008C72.6101 22.8097 72.6901 23.1653 72.8501 23.4675C73.0101 23.7608 73.2274 23.9875 73.5034 24.1475C73.7788 24.3075 74.0901 24.3875 74.4368 24.3875ZM84.0448 25.9875V24.5875L83.9114 24.2808V21.7741C83.9114 21.3297 83.7741 20.983 83.4981 20.7341C83.2314 20.4853 82.8181 20.3608 82.2581 20.3608C81.8761 20.3608 81.4981 20.423 81.1248 20.5475C80.7608 20.663 80.4494 20.823 80.1914 21.0275L79.4448 19.5741C79.8361 19.2986 80.3074 19.0853 80.8581 18.9341C81.4094 18.783 81.9694 18.7075 82.5381 18.7075C83.6314 18.7075 84.4808 18.9653 85.0848 19.4808C85.6894 19.9963 85.9914 20.8008 85.9914 21.8941V25.9875H84.0448ZM81.8581 26.0941C81.2981 26.0941 80.8181 26.0008 80.4181 25.8141C80.0181 25.6186 79.7114 25.3563 79.4981 25.0275C79.2848 24.6986 79.1781 24.3297 79.1781 23.9208C79.1781 23.4941 79.2808 23.1208 79.4848 22.8008C79.6981 22.4808 80.0314 22.2319 80.4848 22.0541C80.9381 21.8675 81.5294 21.7741 82.2581 21.7741H84.1648V22.9875H82.4848C81.9961 22.9875 81.6581 23.0675 81.4714 23.2275C81.2941 23.3875 81.2048 23.5875 81.2048 23.8275C81.2048 24.0941 81.3074 24.3075 81.5114 24.4675C81.7248 24.6186 82.0141 24.6941 82.3781 24.6941C82.7248 24.6941 83.0361 24.6141 83.3114 24.4541C83.5874 24.2853 83.7874 24.0408 83.9114 23.7208L84.2314 24.6808C84.0808 25.143 83.8048 25.4941 83.4048 25.7341C83.0048 25.9741 82.4894 26.0941 81.8581 26.0941ZM90.8074 26.0941C89.9628 26.0941 89.3054 25.8808 88.8341 25.4541C88.3628 25.0186 88.1274 24.3741 88.1274 23.5208V17.2275H90.2074V23.4941C90.2074 23.7963 90.2874 24.0319 90.4474 24.2008C90.6074 24.3608 90.8254 24.4408 91.1008 24.4408C91.4294 24.4408 91.7094 24.3519 91.9408 24.1741L92.5008 25.6408C92.2874 25.7919 92.0294 25.9075 91.7274 25.9875C91.4341 26.0586 91.1274 26.0941 90.8074 26.0941ZM87.0208 20.5741V18.9741H91.9941V20.5741H87.0208ZM98.0288 18.7075C98.5974 18.7075 99.1041 18.823 99.5488 19.0541C100.002 19.2763 100.357 19.623 100.615 20.0941C100.873 20.5563 101.002 21.1519 101.002 21.8808V25.9875H98.9221V22.2008C98.9221 21.623 98.7928 21.1963 98.5354 20.9208C98.2861 20.6453 97.9308 20.5075 97.4688 20.5075C97.1394 20.5075 96.8421 20.5786 96.5754 20.7208C96.3174 20.8541 96.1128 21.063 95.9621 21.3475C95.8194 21.6319 95.7488 21.9963 95.7488 22.4408V25.9875H93.6688V16.0941H95.7488V20.8008L95.2821 20.2008C95.5394 19.7208 95.9088 19.3519 96.3888 19.0941C96.8688 18.8363 97.4154 18.7075 98.0288 18.7075ZM102.887 25.9875V18.8141H104.967V25.9875H102.887ZM103.927 17.8141C103.545 17.8141 103.234 17.703 102.994 17.4808C102.754 17.2586 102.634 16.983 102.634 16.6541C102.634 16.3253 102.754 16.0497 102.994 15.8275C103.234 15.6053 103.545 15.4941 103.927 15.4941C104.309 15.4941 104.621 15.6008 104.861 15.8141C105.101 16.0186 105.221 16.2853 105.221 16.6141C105.221 16.9608 105.101 17.2497 104.861 17.4808C104.629 17.703 104.318 17.8141 103.927 17.8141ZM111.511 26.1475C110.791 26.1475 110.12 26.0319 109.497 25.8008C108.884 25.5608 108.351 25.223 107.897 24.7875C107.444 24.3519 107.089 23.8408 106.831 23.2541C106.582 22.6675 106.457 22.023 106.457 21.3208C106.457 20.6186 106.582 19.9741 106.831 19.3875C107.089 18.8008 107.444 18.2897 107.897 17.8541C108.36 17.4186 108.897 17.0853 109.511 16.8541C110.124 16.6141 110.795 16.4941 111.524 16.4941C112.333 16.4941 113.062 16.6363 113.711 16.9208C114.369 17.1963 114.92 17.6053 115.364 18.1475L113.977 19.4275C113.657 19.063 113.302 18.7919 112.911 18.6141C112.52 18.4275 112.093 18.3341 111.631 18.3341C111.195 18.3341 110.795 18.4053 110.431 18.5475C110.067 18.6897 109.751 18.8941 109.484 19.1608C109.217 19.4275 109.009 19.743 108.857 20.1075C108.715 20.4719 108.644 20.8763 108.644 21.3208C108.644 21.7653 108.715 22.1697 108.857 22.5341C109.009 22.8986 109.217 23.2141 109.484 23.4808C109.751 23.7475 110.067 23.9519 110.431 24.0941C110.795 24.2363 111.195 24.3075 111.631 24.3075C112.093 24.3075 112.52 24.2186 112.911 24.0408C113.302 23.8541 113.657 23.5741 113.977 23.2008L115.364 24.4808C114.92 25.023 114.369 25.4363 113.711 25.7208C113.062 26.0053 112.329 26.1475 111.511 26.1475ZM121.037 25.9875V24.5875L120.904 24.2808V21.7741C120.904 21.3297 120.766 20.983 120.491 20.7341C120.224 20.4853 119.811 20.3608 119.251 20.3608C118.868 20.3608 118.491 20.423 118.117 20.5475C117.753 20.663 117.441 20.823 117.184 21.0275L116.437 19.5741C116.828 19.2986 117.299 19.0853 117.851 18.9341C118.401 18.783 118.961 18.7075 119.531 18.7075C120.624 18.7075 121.473 18.9653 122.077 19.4808C122.681 19.9963 122.984 20.8008 122.984 21.8941V25.9875H121.037ZM118.851 26.0941C118.291 26.0941 117.811 26.0008 117.411 25.8141C117.011 25.6186 116.704 25.3563 116.491 25.0275C116.277 24.6986 116.171 24.3297 116.171 23.9208C116.171 23.4941 116.273 23.1208 116.477 22.8008C116.691 22.4808 117.024 22.2319 117.477 22.0541C117.931 21.8675 118.521 21.7741 119.251 21.7741H121.157V22.9875H119.477C118.988 22.9875 118.651 23.0675 118.464 23.2275C118.286 23.3875 118.197 23.5875 118.197 23.8275C118.197 24.0941 118.299 24.3075 118.504 24.4675C118.717 24.6186 119.006 24.6941 119.371 24.6941C119.717 24.6941 120.028 24.6141 120.304 24.4541C120.579 24.2853 120.779 24.0408 120.904 23.7208L121.224 24.6808C121.073 25.143 120.797 25.4941 120.397 25.7341C119.997 25.9741 119.481 26.0941 118.851 26.0941ZM124.866 25.9875V18.8141H126.853V20.8408L126.573 20.2541C126.786 19.7475 127.129 19.3653 127.599 19.1075C128.071 18.8408 128.644 18.7075 129.319 18.7075V20.6275C129.231 20.6186 129.151 20.6141 129.079 20.6141C129.009 20.6053 128.933 20.6008 128.853 20.6008C128.284 20.6008 127.822 20.7653 127.466 21.0941C127.119 21.4141 126.946 21.9163 126.946 22.6008V25.9875H124.866ZM134.064 26.0941C133.247 26.0941 132.527 25.9341 131.904 25.6141C131.291 25.2941 130.815 24.8586 130.477 24.3075C130.14 23.7475 129.971 23.1119 129.971 22.4008C129.971 21.6808 130.135 21.0453 130.464 20.4941C130.802 19.9341 131.26 19.4986 131.837 19.1875C132.415 18.8675 133.069 18.7075 133.797 18.7075C134.5 18.7075 135.131 18.8586 135.691 19.1608C136.26 19.4541 136.709 19.8808 137.037 20.4408C137.367 20.9919 137.531 21.6541 137.531 22.4275C137.531 22.5075 137.527 22.6008 137.517 22.7075C137.509 22.8053 137.5 22.8986 137.491 22.9875H131.664V21.7741H136.397L135.597 22.1341C135.597 21.7608 135.522 21.4363 135.371 21.1608C135.22 20.8853 135.011 20.6719 134.744 20.5208C134.477 20.3608 134.167 20.2808 133.811 20.2808C133.455 20.2808 133.14 20.3608 132.864 20.5208C132.597 20.6719 132.389 20.8897 132.237 21.1741C132.087 21.4497 132.011 21.7786 132.011 22.1608V22.4808C132.011 22.8719 132.095 23.2186 132.264 23.5208C132.442 23.8141 132.687 24.0408 132.997 24.2008C133.317 24.3519 133.691 24.4275 134.117 24.4275C134.5 24.4275 134.833 24.3697 135.117 24.2541C135.411 24.1386 135.677 23.9653 135.917 23.7341L137.024 24.9341C136.695 25.3075 136.282 25.5963 135.784 25.8008C135.287 25.9963 134.713 26.0941 134.064 26.0941Z" fill="black"/>
</g>
<defs>
<clipPath id="clip0_699_215">
<rect width="138" height="42" fill="white" transform="translate(0 0.5)"/>
</clipPath>
</defs>
</svg>
