<svg width="28" height="28" viewBox="0 0 28 28" fill="none" xmlns="http://www.w3.org/2000/svg">
<g id="pending">
<mask id="mask0_538_4363" style="mask-type:alpha" maskUnits="userSpaceOnUse" x="0" y="0" width="28" height="28">
<rect id="Bounding box" width="28" height="28" fill="#D9D9D9"/>
</mask>
<g mask="url(#mask0_538_4363)">
<path id="pending_2" d="M8.16671 15.7502C8.65282 15.7502 9.06601 15.58 9.40629 15.2397C9.74657 14.8995 9.91671 14.4863 9.91671 14.0002C9.91671 13.5141 9.74657 13.1009 9.40629 12.7606C9.06601 12.4203 8.65282 12.2502 8.16671 12.2502C7.6806 12.2502 7.2674 12.4203 6.92712 12.7606C6.58685 13.1009 6.41671 13.5141 6.41671 14.0002C6.41671 14.4863 6.58685 14.8995 6.92712 15.2397C7.2674 15.58 7.6806 15.7502 8.16671 15.7502ZM14 15.7502C14.4862 15.7502 14.8993 15.58 15.2396 15.2397C15.5799 14.8995 15.75 14.4863 15.75 14.0002C15.75 13.5141 15.5799 13.1009 15.2396 12.7606C14.8993 12.4203 14.4862 12.2502 14 12.2502C13.5139 12.2502 13.1007 12.4203 12.7605 12.7606C12.4202 13.1009 12.25 13.5141 12.25 14.0002C12.25 14.4863 12.4202 14.8995 12.7605 15.2397C13.1007 15.58 13.5139 15.7502 14 15.7502ZM19.8334 15.7502C20.3195 15.7502 20.7327 15.58 21.073 15.2397C21.4132 14.8995 21.5834 14.4863 21.5834 14.0002C21.5834 13.5141 21.4132 13.1009 21.073 12.7606C20.7327 12.4203 20.3195 12.2502 19.8334 12.2502C19.3473 12.2502 18.9341 12.4203 18.5938 12.7606C18.2535 13.1009 18.0834 13.5141 18.0834 14.0002C18.0834 14.4863 18.2535 14.8995 18.5938 15.2397C18.9341 15.58 19.3473 15.7502 19.8334 15.7502ZM14 25.6668C12.3862 25.6668 10.8695 25.3606 9.45004 24.7481C8.0306 24.1356 6.79587 23.3043 5.74587 22.2543C4.69587 21.2043 3.86462 19.9696 3.25212 18.5502C2.63962 17.1307 2.33337 15.6141 2.33337 14.0002C2.33337 12.3863 2.63962 10.8696 3.25212 9.45016C3.86462 8.03072 4.69587 6.796 5.74587 5.746C6.79587 4.696 8.0306 3.86475 9.45004 3.25225C10.8695 2.63975 12.3862 2.3335 14 2.3335C15.6139 2.3335 17.1306 2.63975 18.55 3.25225C19.9695 3.86475 21.2042 4.696 22.2542 5.746C23.3042 6.796 24.1355 8.03072 24.748 9.45016C25.3605 10.8696 25.6667 12.3863 25.6667 14.0002C25.6667 15.6141 25.3605 17.1307 24.748 18.5502C24.1355 19.9696 23.3042 21.2043 22.2542 22.2543C21.2042 23.3043 19.9695 24.1356 18.55 24.7481C17.1306 25.3606 15.6139 25.6668 14 25.6668Z" fill="#4B4B4B"/>
</g>
</g>
</svg>
