<svg width="42" height="42" viewBox="0 0 42 42" fill="none" xmlns="http://www.w3.org/2000/svg">
<mask id="mask0_538_4384" style="mask-type:alpha" maskUnits="userSpaceOnUse" x="5" y="5" width="32" height="32">
<path d="M33.6382 26.7192L29.1932 26.2117C28.1257 26.0892 27.0757 26.4567 26.3232 27.2092L23.1032 30.4292C18.1507 27.9092 14.0907 23.8667 11.5707 18.8967L14.8082 15.6592C15.5607 14.9067 15.9282 13.8567 15.8057 12.7892L15.2982 8.37924C15.0882 6.61174 13.6007 5.28174 11.8157 5.28174H8.78817C6.81067 5.28174 5.16567 6.92674 5.28817 8.90424C6.21567 23.8492 18.1682 35.7842 33.0957 36.7117C35.0732 36.8342 36.7182 35.1892 36.7182 33.2117V30.1842C36.7357 28.4167 35.4057 26.9292 33.6382 26.7192Z" fill="black"/>
</mask>
<g mask="url(#mask0_538_4384)">
<path d="M0 0H42V42H0V0Z" fill="white"/>
</g>
</svg>
