<svg width="28" height="28" viewBox="0 0 28 28" fill="none" xmlns="http://www.w3.org/2000/svg">
<mask id="mask0_538_4342" style="mask-type:alpha" maskUnits="userSpaceOnUse" x="11" y="3" width="6" height="22">
<path fill-rule="evenodd" clip-rule="evenodd" d="M11.6666 5.83333C11.6666 4.55 12.7166 3.5 14 3.5C15.2833 3.5 16.3333 4.55 16.3333 5.83333V15.1667C16.3333 16.45 15.2833 17.5 14 17.5C12.7166 17.5 11.6666 16.45 11.6666 15.1667V5.83333ZM11.6666 22.1667C11.6666 20.878 12.7113 19.8333 14 19.8333C15.2886 19.8333 16.3333 20.878 16.3333 22.1667C16.3333 23.4553 15.2886 24.5 14 24.5C12.7113 24.5 11.6666 23.4553 11.6666 22.1667Z" fill="black"/>
</mask>
<g mask="url(#mask0_538_4342)">
<rect width="28" height="28" fill="#323232"/>
</g>
</svg>
