<svg width="33" height="32" viewBox="0 0 33 32" fill="none" xmlns="http://www.w3.org/2000/svg">
<g opacity="0.5">
<path d="M5.42138 8.3895C7.29204 6.3615 10.1227 5.3335 13.8334 5.3335H15.1667V9.09216L14.0947 9.30683C12.268 9.67216 10.9974 10.3908 10.3174 11.4455C9.96257 12.0137 9.76134 12.6642 9.73338 13.3335H13.8334C14.187 13.3335 14.5261 13.474 14.7762 13.724C15.0262 13.9741 15.1667 14.3132 15.1667 14.6668V24.0002C15.1667 25.4708 13.9707 26.6668 12.5 26.6668H4.50004C4.14642 26.6668 3.80728 26.5264 3.55723 26.2763C3.30718 26.0263 3.16671 25.6871 3.16671 25.3335V18.6668L3.17071 14.7748C3.15871 14.6268 2.90538 11.1202 5.42138 8.3895ZM27.1667 26.6668H19.1667C18.8131 26.6668 18.4739 26.5264 18.2239 26.2763C17.9739 26.0263 17.8334 25.6871 17.8334 25.3335V18.6668L17.8374 14.7748C17.8254 14.6268 17.572 11.1202 20.088 8.3895C21.9587 6.3615 24.7894 5.3335 28.5 5.3335H29.8334V9.09216L28.7614 9.30683C26.9347 9.67216 25.664 10.3908 24.984 11.4455C24.6292 12.0137 24.428 12.6642 24.4 13.3335H28.5C28.8537 13.3335 29.1928 13.474 29.4429 13.724C29.6929 13.9741 29.8334 14.3132 29.8334 14.6668V24.0002C29.8334 25.4708 28.6374 26.6668 27.1667 26.6668Z" fill="#CCE7FF"/>
</g>
</svg>
