<svg width="1440" height="811" viewBox="0 0 1440 811" fill="none" xmlns="http://www.w3.org/2000/svg">
<path d="M-270.615 513.702C-297.529 492.533 -302.187 453.554 -281.018 426.64L35.3171 24.4495C56.4859 -2.46465 95.4649 -7.12226 122.379 14.0465L260.169 122.422C287.083 143.591 291.74 182.57 270.572 209.484L-45.7634 611.675C-66.9322 638.589 -105.911 643.246 -132.825 622.078L-270.615 513.702Z" fill="#EFF9FF"/>
<path d="M1184.73 688.985C1157.82 667.816 1153.16 628.837 1174.33 601.923L1490.66 199.733C1511.83 172.819 1550.81 168.161 1577.73 189.33L1715.52 297.705C1742.43 318.874 1747.09 357.853 1725.92 384.767L1409.58 786.958C1388.42 813.872 1349.44 818.53 1322.52 797.361L1184.73 688.985Z" fill="#EFF9FF"/>
</svg>
