<svg width="270" height="385" viewBox="0 0 270 385" fill="none" xmlns="http://www.w3.org/2000/svg">
<path d="M111 101C111 154.019 68.0193 197 15 197C-38.0193 197 -81 154.019 -81 101C-81 47.9807 -38.0193 5 15 5C68.0193 5 111 47.9807 111 101Z" fill="white"/>
<path d="M187 266C187 328.96 135.96 380 73 380C10.0395 380 -41 328.96 -41 266C-41 203.04 10.0395 152 73 152C135.96 152 187 203.04 187 266Z" fill="#EFF9FF"/>
<path d="M265 264.5C265 297.913 237.913 325 204.5 325C171.087 325 144 297.913 144 264.5C144 231.087 171.087 204 204.5 204C237.913 204 265 231.087 265 264.5Z" fill="white"/>
<path d="M111 101C111 154.019 68.0193 197 15 197C-38.0193 197 -81 154.019 -81 101C-81 47.9807 -38.0193 5 15 5C68.0193 5 111 47.9807 111 101Z" stroke="#EFF9FF" stroke-width="10"/>
<path d="M187 266C187 328.96 135.96 380 73 380C10.0395 380 -41 328.96 -41 266C-41 203.04 10.0395 152 73 152C135.96 152 187 203.04 187 266Z" stroke="#EFF9FF" stroke-width="10"/>
<path d="M265 264.5C265 297.913 237.913 325 204.5 325C171.087 325 144 297.913 144 264.5C144 231.087 171.087 204 204.5 204C237.913 204 265 231.087 265 264.5Z" stroke="#EFF9FF" stroke-width="10"/>
</svg>
