<svg width="36" height="22" viewBox="0 0 36 22" fill="none" xmlns="http://www.w3.org/2000/svg">
<path fill-rule="evenodd" clip-rule="evenodd" d="M23.25 6.88575L33.1305 3.146C33.3955 3.0457 33.6809 3.01124 33.9621 3.04558C34.2434 3.07992 34.5121 3.18204 34.7451 3.34315C34.9782 3.50427 35.1687 3.71957 35.3001 3.97054C35.4316 4.22152 35.5002 4.50067 35.5 4.784V17.2248C35.4999 17.5074 35.4313 17.7859 35.3001 18.0363C35.1689 18.2867 34.979 18.5016 34.7466 18.6626C34.5142 18.8236 34.2463 18.9259 33.9658 18.9607C33.6853 18.9956 33.4005 18.962 33.1357 18.8628L23.25 15.1562V18C23.25 18.9283 22.8813 19.8185 22.2249 20.4749C21.5685 21.1313 20.6783 21.5 19.75 21.5H4C3.07174 21.5 2.1815 21.1313 1.52513 20.4749C0.868749 19.8185 0.5 18.9283 0.5 18V4C0.5 3.07174 0.868749 2.1815 1.52513 1.52513C2.1815 0.868749 3.07174 0.5 4 0.5H19.75C20.6783 0.5 21.5685 0.868749 22.2249 1.52513C22.8813 2.1815 23.25 3.07174 23.25 4V6.88575Z" fill="white"/>
</svg>
