<svg width="520" height="449" viewBox="0 0 520 449" fill="none" xmlns="http://www.w3.org/2000/svg">
<g filter="url(#filter0_dd_538_4397)">
<path d="M179.935 152.833C181.291 145.584 184.207 134.458 189.577 130.691C197.714 124.959 205.986 137.25 215.831 138.822C225.676 140.394 210.095 108.495 227.317 102.749C244.539 97.0033 249.476 118.333 255.225 128.171C260.975 138.009 269.166 124.105 276.557 126.531C283.947 128.957 279.838 142.101 287.216 143.741C294.593 145.38 306.906 135.542 312.656 141.288C318.08 146.708 318.392 147.765 326.217 152.766L179.935 152.833Z" fill="#0085FF"/>
<path d="M404.504 346.002C405.399 341.26 407.298 333.969 410.823 331.503C416.248 327.749 421.564 335.799 428.019 336.923C434.474 338.048 424.262 317.044 435.545 313.29C446.828 309.537 450.055 323.494 453.812 329.931C457.568 336.368 462.952 327.221 467.793 328.86C472.634 330.5 469.935 339.064 474.777 340.135C479.618 341.205 487.673 334.714 491.443 338.536C495.01 342.1 495.199 342.764 500.271 346.043L404.504 346.002Z" fill="#0085FF"/>
<path d="M10.4374 303.412C13.1496 288.804 19.0757 266.336 29.8974 258.694C46.4552 247.121 62.9995 271.919 82.7849 275.226C102.57 278.532 71.2039 214.057 105.947 202.484C140.69 190.912 150.63 233.895 162.211 253.734C173.792 273.573 190.377 245.536 205.294 250.495C220.211 255.455 211.912 281.92 226.802 285.226C241.692 288.533 266.535 268.681 278.116 280.213C289.114 291.202 289.697 293.262 305.319 303.358L10.4374 303.412Z" fill="#0085FF"/>
<path opacity="0.4" d="M179.935 152.833C181.291 145.584 184.207 134.458 189.577 130.691C197.714 124.959 205.986 137.25 215.831 138.822C225.676 140.394 210.095 108.495 227.317 102.749C244.539 97.0033 249.476 118.333 255.225 128.171C260.975 138.009 269.166 124.105 276.557 126.531C283.947 128.957 279.838 142.101 287.216 143.741C294.593 145.38 306.906 135.542 312.656 141.288C318.08 146.708 318.392 147.765 326.217 152.766L179.935 152.833Z" fill="white"/>
<path opacity="0.4" d="M404.504 346.002C405.399 341.26 407.298 333.969 410.823 331.503C416.248 327.749 421.564 335.799 428.019 336.923C434.474 338.048 424.262 317.044 435.545 313.29C446.828 309.537 450.055 323.494 453.812 329.931C457.568 336.368 462.952 327.221 467.793 328.86C472.634 330.5 469.935 339.064 474.777 340.135C479.618 341.205 487.673 334.714 491.443 338.536C495.01 342.1 495.199 342.764 500.271 346.043L404.504 346.002Z" fill="white"/>
<path opacity="0.4" d="M10.4374 303.412C13.1496 288.804 19.0757 266.336 29.8974 258.694C46.4552 247.121 62.9995 271.919 82.7849 275.226C102.57 278.532 71.2039 214.057 105.947 202.484C140.69 190.912 150.63 233.895 162.211 253.734C173.792 273.573 190.377 245.536 205.294 250.495C220.211 255.455 211.912 281.92 226.802 285.226C241.692 288.533 266.535 268.681 278.116 280.213C289.114 291.202 289.697 293.262 305.319 303.358L10.4374 303.412Z" fill="white"/>
<path d="M100.211 253.786C100.211 253.786 81.7682 255.615 72.4111 267.039C69.0532 262.97 64.8338 259.697 60.057 257.454C55.2803 255.212 50.0652 254.056 44.7876 254.071C40.4544 248.844 37.6961 242.494 36.834 235.761C35.9719 229.029 37.0413 222.19 39.9178 216.041C42.7944 209.892 47.3596 204.686 53.082 201.03C58.8045 197.373 65.4487 195.415 72.2412 195.386C79.0336 195.356 85.6948 197.254 91.4493 200.861C97.2038 204.467 101.815 209.633 104.745 215.756C107.676 221.879 108.806 228.708 108.003 235.448C107.2 242.188 104.498 248.562 100.211 253.827V253.786Z" fill="#0085FF"/>
<path opacity="0.3" d="M100.211 253.786C100.211 253.786 81.7682 255.615 72.4111 267.039C69.0532 262.97 64.8338 259.697 60.057 257.454C55.2803 255.212 50.0652 254.056 44.7876 254.071C40.4544 248.844 37.6961 242.494 36.834 235.761C35.9719 229.029 37.0413 222.19 39.9178 216.041C42.7944 209.892 47.3596 204.686 53.082 201.03C58.8045 197.373 65.4487 195.415 72.2412 195.386C79.0336 195.356 85.6948 197.254 91.4493 200.861C97.2038 204.467 101.815 209.633 104.745 215.756C107.676 221.879 108.806 228.708 108.003 235.448C107.2 242.188 104.498 248.562 100.211 253.827V253.786Z" fill="white"/>
<path d="M73.0212 197.901L73.645 290.319H70.526L73.0212 197.901Z" fill="#232D33"/>
<path d="M72.0855 263.556C72.0855 263.556 65.8611 252.363 54.6462 248.935C54.6462 248.935 66.4849 251.74 72.3975 261.374L72.0855 263.556Z" fill="#232D33"/>
<path d="M72.0855 231.82C72.0855 231.82 65.8611 220.627 54.6462 217.198C54.6462 217.198 66.4849 220.003 72.3975 229.638L72.0855 231.82Z" fill="#232D33"/>
<path d="M72.0855 247.688C72.0855 247.688 65.8611 236.495 54.6462 233.066C54.6462 233.066 66.4849 235.871 72.3975 245.506L72.0855 247.688Z" fill="#232D33"/>
<path d="M73.0077 239.91C73.0077 239.91 79.0152 228.716 89.8368 225.288C89.8368 225.288 78.4185 228.093 72.7094 237.728L73.0077 239.91Z" fill="#232D33"/>
<path d="M73.0077 255.466C73.0077 255.466 79.0152 244.273 89.8368 240.845C89.8368 240.845 78.4185 243.65 72.7094 253.285L73.0077 255.466Z" fill="#232D33"/>
<path d="M168.761 232.606C168.761 232.606 144.067 235.058 131.536 250.357C131.536 250.357 118.314 232.633 94.5557 232.985C88.7501 225.986 85.0536 217.483 83.8967 208.466C82.7397 199.449 84.1699 190.289 88.0206 182.053C91.8714 173.817 97.9843 166.843 105.648 161.944C113.311 157.045 122.209 154.422 131.307 154.38C140.404 154.339 149.326 156.881 157.034 161.71C164.741 166.539 170.918 173.456 174.844 181.657C178.77 189.858 180.284 199.004 179.209 208.031C178.135 217.058 174.516 225.595 168.775 232.646L168.761 232.606Z" fill="#0085FF"/>
<path opacity="0.5" d="M168.761 232.606C168.761 232.606 144.067 235.058 131.536 250.357C131.536 250.357 118.314 232.633 94.5557 232.985C88.7501 225.986 85.0536 217.483 83.8967 208.466C82.7397 199.449 84.1699 190.289 88.0206 182.053C91.8714 173.817 97.9843 166.843 105.648 161.944C113.311 157.045 122.209 154.422 131.307 154.38C140.404 154.339 149.326 156.881 157.034 161.71C164.741 166.539 170.918 173.456 174.844 181.657C178.77 189.858 180.284 199.004 179.209 208.031C178.135 217.058 174.516 225.595 168.775 232.646L168.761 232.606Z" fill="white"/>
<path d="M132.364 157.777L133.191 281.525H129.028L132.364 157.777Z" fill="#232D33"/>
<path d="M131.103 245.696C131.103 245.696 122.763 230.695 107.751 226.115C107.751 226.115 123.603 229.855 131.523 242.769L131.103 245.696Z" fill="#232D33"/>
<path d="M131.103 203.187C131.103 203.187 122.763 188.186 107.751 183.605C107.751 183.605 123.603 187.359 131.523 200.273L131.103 203.187Z" fill="#232D33"/>
<path d="M131.103 224.448C131.103 224.448 122.763 209.447 107.751 204.853C107.751 204.853 123.603 208.607 131.523 221.521L131.103 224.448Z" fill="#232D33"/>
<path d="M132.337 214.027C132.337 214.027 140.392 199.027 154.875 194.446C154.875 194.446 139.592 198.186 131.943 211.114L132.337 214.027Z" fill="#232D33"/>
<path d="M132.337 234.855C132.337 234.855 140.392 219.854 154.875 215.274C154.875 215.274 139.592 219.028 131.943 231.942L132.337 234.855Z" fill="#232D33"/>
<path d="M384.42 231.955C384.42 231.955 359.129 234.449 346.314 250.113C346.314 250.113 332.753 231.969 308.452 232.348C302.502 225.185 298.711 216.48 297.522 207.248C296.332 198.015 297.792 188.634 301.732 180.199C305.672 171.763 311.93 164.62 319.776 159.602C327.622 154.583 336.734 151.896 346.049 151.853C355.365 151.809 364.501 154.412 372.394 159.358C380.286 164.303 386.61 171.388 390.628 179.786C394.646 188.185 396.193 197.551 395.09 206.795C393.986 216.038 390.276 224.778 384.393 231.996L384.42 231.955Z" fill="#0085FF"/>
<path opacity="0.3" d="M384.42 231.955C384.42 231.955 359.129 234.449 346.314 250.113C346.314 250.113 332.753 231.969 308.452 232.348C302.502 225.185 298.711 216.48 297.522 207.248C296.332 198.015 297.792 188.634 301.732 180.199C305.672 171.763 311.93 164.62 319.776 159.602C327.622 154.583 336.734 151.896 346.049 151.853C355.365 151.809 364.501 154.412 372.394 159.358C380.286 164.303 386.61 171.388 390.628 179.786C394.646 188.185 396.193 197.551 395.09 206.795C393.986 216.038 390.276 224.778 384.393 231.996L384.42 231.955Z" fill="white"/>
<path d="M347.155 155.352L348.009 282.026H343.738L347.155 155.352Z" fill="#232D33"/>
<path d="M345.867 245.344C345.867 245.344 337.337 230.004 321.918 225.302C321.918 225.302 338.191 229.137 346.246 242.362L345.867 245.344Z" fill="#232D33"/>
<path d="M345.867 201.845C345.867 201.845 337.337 186.491 321.973 181.803C321.973 181.803 338.246 185.638 346.301 198.85L345.867 201.845Z" fill="#232D33"/>
<path d="M345.867 223.594C345.867 223.594 337.337 208.241 321.973 203.552C321.973 203.552 338.246 207.387 346.301 220.613L345.867 223.594Z" fill="#232D33"/>
<path d="M347.142 212.93C347.142 212.93 355.373 197.576 370.195 192.888C370.195 192.888 354.546 196.723 346.721 209.948L347.142 212.93Z" fill="#232D33"/>
<path d="M347.142 234.259C347.142 234.259 355.373 218.905 370.195 214.203C370.195 214.203 354.546 218.052 346.721 231.264L347.142 234.259Z" fill="#232D33"/>
<path d="M470.166 256.807C470.166 256.807 450.543 258.745 440.59 270.9C440.59 270.9 430.08 256.821 411.217 257.106C406.603 251.546 403.664 244.791 402.744 237.628C401.823 230.464 402.958 223.186 406.017 216.642C409.075 210.098 413.931 204.557 420.019 200.664C426.107 196.771 433.177 194.687 440.404 194.654C447.632 194.62 454.721 196.64 460.844 200.477C466.968 204.313 471.875 209.809 474.993 216.325C478.112 222.841 479.314 230.108 478.459 237.279C477.605 244.451 474.729 251.233 470.166 256.835V256.807Z" fill="#0085FF"/>
<path opacity="0.5" d="M470.166 256.807C470.166 256.807 450.543 258.745 440.59 270.9C440.59 270.9 430.08 256.821 411.217 257.106C406.603 251.546 403.664 244.791 402.744 237.628C401.823 230.464 402.958 223.186 406.017 216.642C409.075 210.098 413.931 204.557 420.019 200.664C426.107 196.771 433.177 194.687 440.404 194.654C447.632 194.62 454.721 196.64 460.844 200.477C466.968 204.313 471.875 209.809 474.993 216.325C478.112 222.841 479.314 230.108 478.459 237.279C477.605 244.451 474.729 251.233 470.166 256.835V256.807Z" fill="white"/>
<path d="M441.241 197.359L441.905 295.658H438.596L441.241 197.359Z" fill="#232D33"/>
<path d="M440.251 267.187C440.251 267.187 433.619 255.276 421.699 251.631C421.699 251.631 434.284 254.612 440.576 264.87L440.251 267.187Z" fill="#232D33"/>
<path d="M440.251 233.432C440.251 233.432 433.619 221.521 421.699 217.876C421.699 217.876 434.284 220.857 440.576 231.115L440.251 233.432Z" fill="#232D33"/>
<path d="M440.251 250.33C440.251 250.33 433.619 238.405 421.699 234.773C421.699 234.773 434.284 237.755 440.576 248.013L440.251 250.33Z" fill="#232D33"/>
<path d="M441.254 242.037C441.254 242.037 447.655 230.126 459.155 226.48C459.155 226.48 446.95 229.462 440.942 239.72L441.254 242.037Z" fill="#232D33"/>
<path d="M441.254 258.583C441.254 258.583 447.655 246.672 459.155 243.026C459.155 243.026 446.95 246.008 440.942 256.266L441.254 258.583Z" fill="#232D33"/>
<path d="M24.9344 221.91L32.637 220.554C33.2879 220.202 33.9795 219.863 34.7118 219.538L28.5823 213.413L46.7946 214.633L48.6253 211.597L53.4801 212.803L55.9075 206.732L62.593 209.172L64.4102 200.675L70.4855 203.711L76.5608 198.846L78.405 202.545L83.2599 201.326L84.9278 203.819L86.4738 203.426L88.6707 198.846L96.1292 201.041L100.197 200.133L101.459 198.236H109.283L110.639 197.979L111.222 192.775L120.932 193.385L125.787 187.964L130.045 192.816L132.459 190.349L135.496 191.569L139.755 186.149C139.755 186.149 143.389 191.569 145.816 192.219C148.244 192.87 152.502 187.964 152.502 187.964L154.984 191.271L157.696 190.973L159.757 188.574L163.378 190.349L164.842 190.214L165.859 186.149L173.155 188.574L178.01 184.319L180.858 188.872L182.838 188.737L185.902 187.964L192.588 186.149L195.015 187.355L202.908 180.688V187.585H203.626L211.41 183.14L212.441 187.206H214.584L216.279 183.14L223.493 186.962H226.883L227.209 185.01L239.414 186.23L243.658 178.939L247.306 185.62L251.551 179.549L255.266 186.962H259.335L261.911 184.956L262.508 187.029L265.912 187.124L270.387 183.682L270.997 186.704L275.811 184.929L280.585 187.639H281.507L283.704 184.346L290.999 186.772L293.129 188.195L296.912 188.398L297.671 184.956L306.133 189.021L310.324 189.292C311.748 187.856 314.243 185.62 315.897 185.62C316.662 185.681 317.398 185.935 318.036 186.36C318.675 186.784 319.194 187.364 319.545 188.046L321.918 186.108L324.698 190.268L326.515 190.431L328.59 187.924L334.666 190.959L337.093 185.539L343.779 190.959L344.999 186.704L351.752 190.959L356.01 186.108L360.377 193.737L361.733 193.886L365.801 190.349L369.327 194.753L371.741 195.052L374.914 190.986L376.135 194.022L381.559 190.986L384.597 196.407L390.672 193.981L397.52 198.48L405.806 199.659L409.413 197.071L412.451 198.886L416.709 197.071L417.916 200.716L422.174 199.496L425.375 202.694L425.958 202.789L427.693 198.846L433.714 202.545L437.349 197.694L442.217 203.765L450.11 204.361L457.392 204.971L462.816 207.396L468.091 210.391L471.929 209.822L475.401 212.031L475.767 212.126L479.835 210.96L482.873 212.776L488.297 212.18L489.138 216.34C490.494 216.828 491.742 217.329 493.016 217.858C494.223 217.736 495.457 217.641 496.203 217.641C496.949 217.641 497.939 218.996 498.915 220.582C507.771 225.162 513.195 230.894 506.198 237.046C497.003 245.177 473.651 241.599 462.884 240.881C416.777 237.818 381.966 228.157 364.066 229.728C346.165 231.3 417.238 268.525 340.375 268.538C263.511 268.552 105.771 259.649 82.7174 257.481C59.6638 255.313 105.595 246.857 98.9905 236.721C92.3863 226.585 38.7665 235.176 29.7485 232.764C23.7681 231.165 25.6802 227.167 27.6059 224.633L24.9344 221.91Z" fill="#0085FF"/>
<path opacity="0.4" d="M24.9344 221.91L32.637 220.554C33.2879 220.202 33.9795 219.863 34.7118 219.538L28.5823 213.413L46.7946 214.633L48.6253 211.597L53.4801 212.803L55.9075 206.732L62.593 209.172L64.4102 200.675L70.4855 203.711L76.5608 198.846L78.405 202.545L83.2599 201.326L84.9278 203.819L86.4738 203.426L88.6707 198.846L96.1292 201.041L100.197 200.133L101.459 198.236H109.283L110.639 197.979L111.222 192.775L120.932 193.385L125.787 187.964L130.045 192.816L132.459 190.349L135.496 191.569L139.755 186.149C139.755 186.149 143.389 191.569 145.816 192.219C148.244 192.87 152.502 187.964 152.502 187.964L154.984 191.271L157.696 190.973L159.757 188.574L163.378 190.349L164.842 190.214L165.859 186.149L173.155 188.574L178.01 184.319L180.858 188.872L182.838 188.737L185.902 187.964L192.588 186.149L195.015 187.355L202.908 180.688V187.585H203.626L211.41 183.14L212.441 187.206H214.584L216.279 183.14L223.493 186.962H226.883L227.209 185.01L239.414 186.23L243.658 178.939L247.306 185.62L251.551 179.549L255.266 186.962H259.335L261.911 184.956L262.508 187.029L265.912 187.124L270.387 183.682L270.997 186.704L275.811 184.929L280.585 187.639H281.507L283.704 184.346L290.999 186.772L293.129 188.195L296.912 188.398L297.671 184.956L306.133 189.021L310.324 189.292C311.748 187.856 314.243 185.62 315.897 185.62C316.662 185.681 317.398 185.935 318.036 186.36C318.675 186.784 319.194 187.364 319.545 188.046L321.918 186.108L324.698 190.268L326.515 190.431L328.59 187.924L334.666 190.959L337.093 185.539L343.779 190.959L344.999 186.704L351.752 190.959L356.01 186.108L360.377 193.737L361.733 193.886L365.801 190.349L369.327 194.753L371.741 195.052L374.914 190.986L376.135 194.022L381.559 190.986L384.597 196.407L390.672 193.981L397.52 198.48L405.806 199.659L409.413 197.071L412.451 198.886L416.709 197.071L417.916 200.716L422.174 199.496L425.375 202.694L425.958 202.789L427.693 198.846L433.714 202.545L437.349 197.694L442.217 203.765L450.11 204.361L457.392 204.971L462.816 207.396L468.091 210.391L471.929 209.822L475.401 212.031L475.767 212.126L479.835 210.96L482.873 212.776L488.297 212.18L489.138 216.34C490.494 216.828 491.742 217.329 493.016 217.858C494.223 217.736 495.457 217.641 496.203 217.641C496.949 217.641 497.939 218.996 498.915 220.582C507.771 225.162 513.195 230.894 506.198 237.046C497.003 245.177 473.651 241.599 462.884 240.881C416.777 237.818 381.966 228.157 364.066 229.728C346.165 231.3 417.238 268.525 340.375 268.538C263.511 268.552 105.771 259.649 82.7174 257.481C59.6638 255.313 105.595 246.857 98.9905 236.721C92.3863 226.585 38.7665 235.176 29.7485 232.764C23.7681 231.165 25.6802 227.167 27.6059 224.633L24.9344 221.91Z" fill="white"/>
<path d="M215.397 297.033C215.397 297.033 219.316 307.278 222.327 313.294C225.337 319.311 230.463 344.949 231.684 357.606C232.904 370.263 234.694 386.239 234.694 386.239C234.694 386.239 241.638 398.896 244.946 403.72C248.255 408.544 253.083 411.254 250.371 414.561C247.659 417.867 241.014 413.355 236.186 410.644C231.358 407.934 230.762 403.11 228.05 401.904C225.337 400.698 219.601 401.592 220.51 393.773C221.418 385.955 225.636 382.025 224.727 379.911C223.819 377.797 217.499 357.01 214.787 351.589C212.075 346.169 206.04 339.827 203.626 331.398C202.113 325.389 201.401 319.206 201.511 313.01C201.511 313.01 195.788 301.559 194.88 300.949C193.971 300.34 212.075 299.445 215.397 297.033Z" fill="white"/>
<mask id="mask0_538_4397" style="mask-type:luminance" maskUnits="userSpaceOnUse" x="194" y="297" width="58" height="119">
<path d="M215.397 297.033C215.397 297.033 219.316 307.278 222.327 313.294C225.337 319.311 230.463 344.949 231.684 357.606C232.904 370.263 234.694 386.239 234.694 386.239C234.694 386.239 241.638 398.896 244.946 403.72C248.255 408.544 253.083 411.254 250.371 414.561C247.659 417.867 241.014 413.355 236.186 410.644C231.358 407.934 230.762 403.11 228.05 401.904C225.337 400.698 219.601 401.592 220.51 393.773C221.418 385.955 225.636 382.025 224.727 379.911C223.819 377.797 217.499 357.01 214.787 351.589C212.075 346.169 206.04 339.827 203.626 331.398C202.113 325.389 201.401 319.206 201.511 313.01C201.511 313.01 195.788 301.559 194.88 300.949C193.971 300.34 212.075 299.445 215.397 297.033Z" fill="white"/>
</mask>
<g mask="url(#mask0_538_4397)">
<path d="M215.397 297.033C215.397 297.033 219.316 307.278 222.327 313.294C225.337 319.311 230.463 344.949 231.684 357.606C232.904 370.263 234.694 386.239 234.694 386.239C234.694 386.239 241.638 398.896 244.946 403.72C248.255 408.544 253.083 411.254 250.371 414.561C247.659 417.867 241.014 413.355 236.186 410.644C231.358 407.934 230.762 403.11 228.05 401.904C225.337 400.698 219.601 401.592 220.51 393.773C221.418 385.955 225.636 382.025 224.727 379.911C223.819 377.797 217.499 357.01 214.787 351.589C212.075 346.169 206.04 339.827 203.626 331.398C202.113 325.389 201.401 319.206 201.511 313.01C201.511 313.01 195.788 301.559 194.88 300.949C193.971 300.34 212.075 299.445 215.397 297.033Z" fill="#D9D9D9" stroke="#232D33" stroke-linecap="round" stroke-linejoin="round"/>
<path opacity="0.25" d="M219.723 307.644C217.092 308.999 212.048 311.492 208.956 311.492H204.63C204.63 311.492 201.267 319.175 207.03 332.144C212.794 345.112 222.897 360.465 225.297 370.547C226.653 376.171 230.206 393.706 233.108 408.138C230.911 405.617 230.043 402.812 228.063 401.931C225.351 400.725 219.615 401.62 220.523 393.801C221.432 385.982 225.649 382.052 224.741 379.938C223.832 377.824 217.499 357.01 214.787 351.589C212.075 346.169 206.04 339.827 203.626 331.398C202.113 325.389 201.402 319.206 201.511 313.01C201.511 313.01 195.788 301.559 194.88 300.949C193.971 300.34 212.075 299.445 215.397 297.033C215.397 297.033 217.499 302.399 219.723 307.644Z" fill="black"/>
</g>
<path d="M215.397 297.033C215.397 297.033 219.316 307.278 222.327 313.294C225.337 319.311 230.463 344.949 231.684 357.606C232.904 370.263 234.694 386.239 234.694 386.239C234.694 386.239 241.638 398.896 244.946 403.72C248.255 408.544 253.083 411.254 250.371 414.561C247.659 417.867 241.014 413.355 236.186 410.644C231.358 407.934 230.762 403.11 228.05 401.904C225.337 400.698 219.601 401.592 220.51 393.774C221.418 385.955 225.636 382.025 224.727 379.911C223.819 377.797 217.499 357.01 214.787 351.589C212.075 346.169 206.04 339.827 203.626 331.398C202.113 325.389 201.401 319.206 201.511 313.01C201.511 313.01 195.788 301.559 194.88 300.949C193.971 300.34 212.075 299.445 215.397 297.033Z" stroke="#232D33" stroke-linecap="round" stroke-linejoin="round"/>
<path d="M250.384 414.588C247.672 417.908 241.027 413.382 236.2 410.672C231.372 407.961 230.775 403.137 228.063 401.931C225.351 400.725 219.615 401.62 220.523 393.801C221.323 386.835 224.741 382.96 224.863 380.71C225.49 382.926 226.823 384.876 228.66 386.266C232.579 389.586 234.694 386.266 234.694 386.266C234.694 386.266 241.638 398.923 244.946 403.747C248.255 408.571 253.097 411.322 250.384 414.588Z" fill="#232D33" stroke="#232D33" stroke-linecap="round" stroke-linejoin="round"/>
<path d="M220.51 393.868C221.976 395.154 223.603 396.243 225.351 397.107C230.477 399.519 231.684 404.031 238.912 409.763C240.56 411.211 242.513 412.269 244.625 412.86C246.738 413.451 248.957 413.56 251.117 413.178C250.981 413.678 250.736 414.141 250.398 414.533C247.686 417.853 241.041 413.327 236.213 410.617C231.386 407.907 230.789 403.083 228.077 401.877C225.365 400.671 219.669 401.606 220.51 393.868Z" fill="white" stroke="#232D33" stroke-linecap="round" stroke-linejoin="round"/>
<path d="M137.571 298.537L130.628 309.093C130.628 309.093 127.618 322.956 123.088 331.994C118.559 341.033 107.398 356.386 101.974 363.04C96.5495 369.693 94.7324 382.634 94.7324 382.634C94.7324 382.634 97.4446 388.366 95.641 392.581C93.8374 396.795 88.6978 399.817 87.7892 403.733C86.8806 407.649 81.4563 417 77.2388 416.39C73.0214 415.78 70.2956 410.373 73.618 402.527C76.9405 394.681 83.2734 388.664 85.077 380.52C86.8806 372.376 92.6169 338.621 97.4446 328.078C100.184 321.999 103.413 316.153 107.1 310.597L111.629 292.507C111.629 292.507 128.513 301.559 137.571 298.537Z" fill="white"/>
<mask id="mask1_538_4397" style="mask-type:luminance" maskUnits="userSpaceOnUse" x="72" y="292" width="66" height="125">
<path d="M137.571 298.537L130.628 309.093C130.628 309.093 127.618 322.956 123.088 331.994C118.559 341.033 107.398 356.386 101.974 363.04C96.5495 369.693 94.7324 382.634 94.7324 382.634C94.7324 382.634 97.4446 388.366 95.641 392.581C93.8374 396.795 88.6978 399.817 87.7892 403.733C86.8806 407.649 81.4563 417 77.2388 416.39C73.0214 415.78 70.2956 410.373 73.618 402.527C76.9405 394.681 83.2734 388.664 85.077 380.52C86.8806 372.376 92.6169 338.621 97.4446 328.078C100.184 321.999 103.413 316.153 107.1 310.597L111.629 292.507C111.629 292.507 128.513 301.559 137.571 298.537Z" fill="white"/>
</mask>
<g mask="url(#mask1_538_4397)">
<path d="M137.571 298.537L130.628 309.093C130.628 309.093 127.618 322.956 123.088 331.994C118.559 341.033 107.398 356.386 101.974 363.04C96.5495 369.693 94.7324 382.634 94.7324 382.634C94.7324 382.634 97.4446 388.366 95.641 392.581C93.8374 396.795 88.6978 399.817 87.7892 403.733C86.8806 407.649 81.4563 417 77.2388 416.39C73.0214 415.78 70.2956 410.373 73.618 402.527C76.9405 394.681 83.2734 388.664 85.077 380.52C86.8806 372.376 92.6169 338.621 97.4446 328.078C100.184 321.999 103.413 316.153 107.1 310.597L111.629 292.507C111.629 292.507 128.513 301.559 137.571 298.537Z" fill="#D9D9D9" stroke="#232D33" stroke-linecap="round" stroke-linejoin="round"/>
<path opacity="0.25" d="M97.4446 328.078C100.184 321.999 103.413 316.153 107.1 310.597L111.629 292.507C111.629 292.507 128.513 301.559 137.571 298.537L130.669 309.025C129.489 309.025 128.187 309.093 126.79 309.093C122.988 308.994 119.239 308.18 115.738 306.695C115.738 306.695 104.211 324.934 98.4481 340.301C94.4476 350.966 89.2809 367.159 85.8635 376.726C88.2096 364.869 93.1864 337.401 97.4446 328.078Z" fill="black"/>
</g>
<path d="M137.571 298.537L130.628 309.093C130.628 309.093 127.618 322.956 123.088 331.994C118.559 341.033 107.398 356.386 101.974 363.04C96.5495 369.693 94.7324 382.634 94.7324 382.634C94.7324 382.634 97.4446 388.366 95.641 392.581C93.8374 396.795 88.6978 399.817 87.7892 403.733C86.8806 407.649 81.4563 417 77.2388 416.39C73.0214 415.78 70.2956 410.373 73.618 402.527C76.9405 394.681 83.2734 388.664 85.077 380.52C86.8806 372.376 92.6169 338.621 97.4446 328.078C100.184 321.999 103.413 316.153 107.1 310.597L111.629 292.507C111.629 292.507 128.513 301.559 137.571 298.537Z" stroke="#232D33" stroke-linecap="round" stroke-linejoin="round"/>
<path d="M73.6181 402.527C76.4795 395.752 81.5784 390.331 84.0872 383.786C84.5248 385.077 85.2803 386.237 86.284 387.16C89.6064 389.871 94.7325 382.634 94.7325 382.634C94.7325 382.634 97.4447 388.366 95.6411 392.581C93.8375 396.795 88.6979 399.817 87.7893 403.733C86.8807 407.649 81.4564 417 77.2389 416.39C73.0215 415.78 70.2957 410.373 73.6181 402.527Z" fill="#232D33" stroke="#232D33" stroke-linecap="round" stroke-linejoin="round"/>
<path d="M87.7891 403.733C87.4078 405.147 86.8616 406.512 86.1618 407.799C86.3252 407.456 86.4657 407.103 86.5822 406.742C88.101 401.918 88.9961 395.901 92.3185 392.865C93.9426 391.267 95.2292 389.36 96.102 387.255C96.4363 389.035 96.2769 390.872 95.6409 392.567C93.8238 396.809 88.6706 399.817 87.7891 403.733Z" fill="white" stroke="#232D33" stroke-linecap="round" stroke-linejoin="round"/>
<path d="M72.3974 406.403C72.7636 408.937 73.5094 411.823 75.1096 413.382C77.9167 416.187 83.097 412.948 85.538 408.95C83.3547 412.826 80.0187 416.796 77.2251 416.39C73.7535 415.902 71.299 412.108 72.3974 406.403Z" fill="white" stroke="#232D33" stroke-linecap="round" stroke-linejoin="round"/>
<path d="M125.8 203.897C125.8 203.897 125.204 204.494 127.916 206.296C130.628 208.098 137.259 209.616 135.754 212.028C134.249 214.44 132.744 215.646 133.95 216.554C135.157 217.462 136.961 217.462 138.466 218.654C139.971 219.847 144.501 205.402 144.501 205.402C144.501 205.402 133.34 199.927 125.8 203.897Z" fill="white"/>
<mask id="mask2_538_4397" style="mask-type:luminance" maskUnits="userSpaceOnUse" x="125" y="202" width="20" height="17">
<path d="M125.8 203.897C125.8 203.897 125.204 204.494 127.916 206.296C130.628 208.098 137.259 209.616 135.754 212.028C134.249 214.44 132.744 215.646 133.95 216.554C135.157 217.462 136.961 217.462 138.466 218.654C139.971 219.847 144.501 205.402 144.501 205.402C144.501 205.402 133.34 199.927 125.8 203.897Z" fill="white"/>
</mask>
<g mask="url(#mask2_538_4397)">
<path d="M125.8 203.897C125.8 203.897 125.204 204.494 127.916 206.296C130.628 208.098 137.259 209.616 135.754 212.028C134.249 214.44 132.744 215.646 133.95 216.554C135.157 217.462 136.961 217.462 138.466 218.654C139.971 219.847 144.501 205.402 144.501 205.402C144.501 205.402 133.34 199.927 125.8 203.897Z" fill="#0085FF"/>
<path opacity="0.25" d="M125.8 203.897C125.8 203.897 125.204 204.494 127.916 206.296C130.628 208.098 137.259 209.616 135.754 212.028C134.249 214.44 132.744 215.646 133.95 216.554C135.157 217.462 136.961 217.462 138.466 218.654C139.971 219.847 144.501 205.402 144.501 205.402C144.501 205.402 133.34 199.927 125.8 203.897Z" fill="black"/>
</g>
<path d="M125.8 203.897C125.8 203.897 125.204 204.494 127.916 206.296C130.628 208.098 137.259 209.616 135.754 212.028C134.249 214.44 132.744 215.646 133.95 216.554C135.157 217.462 136.961 217.462 138.466 218.654C139.971 219.847 144.501 205.402 144.501 205.402C144.501 205.402 133.34 199.927 125.8 203.897Z" stroke="#232D33" stroke-linecap="round" stroke-linejoin="round"/>
<path d="M194.88 213.844L197.592 229.509C197.592 229.509 208.752 253.63 212.671 265.988C216.591 278.347 222.327 300.042 222.327 300.042C222.327 300.042 218.109 303.362 205.43 305.462C192.75 307.562 176.816 299.445 176.816 299.445C176.816 299.445 171.989 273.522 170.483 270.202C168.978 266.882 164.761 258.142 164.761 258.142H160.828L150.576 297.941C150.576 297.941 141.233 300.353 135.795 301.248C130.357 302.142 122.234 302.752 114.979 297.63C110.275 294.06 106.372 289.545 103.52 284.377C103.52 284.377 114.979 257.275 120.118 246.095C125.258 234.916 137.002 215.944 137.002 215.944L140.622 203.586L194.88 213.844Z" fill="#232D33" stroke="#232D33" stroke-linecap="round" stroke-linejoin="round"/>
<path d="M194.27 235.539L181.604 247.599" stroke="white" stroke-linecap="round" stroke-linejoin="round"/>
<path d="M178.878 251.488L176.776 253.02" stroke="white" stroke-linecap="round" stroke-linejoin="round"/>
<path d="M193.971 240.363L181.278 249.713" stroke="white" stroke-linecap="round" stroke-linejoin="round"/>
<path d="M183.244 298.849C181.44 298.18 179.683 297.392 177.983 296.491" stroke="white" stroke-linecap="round" stroke-linejoin="round"/>
<path d="M219.005 297.629C209.959 301.39 200.023 302.477 190.377 300.76" stroke="white" stroke-linecap="round" stroke-linejoin="round"/>
<path d="M149.328 294.919C149.328 294.919 128.512 308.186 105.933 282.859" stroke="white" stroke-linecap="round" stroke-linejoin="round"/>
<path d="M133.34 226.798L139.375 238.249" stroke="white" stroke-linecap="round" stroke-linejoin="round"/>
<path d="M182.512 222.882C171.31 224.013 160.017 221.921 149.966 216.852" stroke="white" stroke-linecap="round" stroke-linejoin="round"/>
<path d="M138.629 210.28L140.582 203.586L194.826 213.844L195.314 216.636C186.441 219.226 177.103 219.814 167.975 218.356C157.927 216.744 148.087 214.035 138.629 210.28Z" fill="white"/>
<mask id="mask3_538_4397" style="mask-type:luminance" maskUnits="userSpaceOnUse" x="138" y="203" width="58" height="17">
<path d="M138.629 210.28L140.582 203.586L194.826 213.844L195.314 216.636C186.441 219.226 177.103 219.814 167.975 218.356C157.927 216.744 148.087 214.035 138.629 210.28Z" fill="white"/>
</mask>
<g mask="url(#mask3_538_4397)">
<path d="M138.629 210.28L140.582 203.586L194.826 213.844L195.314 216.636C186.441 219.226 177.103 219.814 167.975 218.356C157.927 216.744 148.087 214.035 138.629 210.28Z" fill="#949494" stroke="#232D33" stroke-linecap="round" stroke-linejoin="round"/>
</g>
<path d="M138.629 210.28L140.582 203.586L194.826 213.844L195.314 216.636C186.441 219.226 177.103 219.814 167.975 218.356C157.927 216.744 148.087 214.035 138.629 210.28Z" stroke="#232D33" stroke-linecap="round" stroke-linejoin="round"/>
<path d="M108.822 94.4733C111.793 83.7268 115.723 73.2687 120.566 63.2248C124.241 55.4059 127.889 45.6085 133.557 39.0092C137.178 34.7949 143.823 31.4749 145.328 32.0847C146.833 32.6945 153.465 35.3911 153.465 39.0092C153.465 42.6273 151.051 42.6273 151.051 42.6273C151.051 42.6273 151.661 47.1533 149.844 48.9556C148.027 50.7579 138.683 50.1616 138.683 50.1616C137.014 52.6136 135.627 55.2455 134.547 58.0076C132.744 64.0243 131.143 65.2303 129.936 76.0846C128.743 84.7212 127.031 93.2782 124.81 101.71C125.973 102.424 126.998 103.342 127.835 104.42C129.638 106.534 141.097 117.971 141.097 117.971C144.412 119.541 147.844 120.851 151.363 121.887C154.45 122.846 157.438 124.099 160.286 125.627C162.144 125.41 164.015 125.207 165.019 125.207C167.134 125.207 181.902 127.917 181.902 127.917C185.316 125.888 188.957 124.269 192.751 123.093C196.269 122.057 199.702 120.747 203.016 119.177C203.016 119.177 214.475 107.726 216.279 105.626C217.116 104.548 218.14 103.63 219.303 102.916C217.082 94.4842 215.37 85.9272 214.177 77.2907C213.2 68.5367 210.678 58.5903 205.417 51.3677C205.417 51.3677 196.073 51.9775 194.256 50.1616C192.439 48.3458 193.063 43.8333 193.063 43.8333C193.063 43.8333 190.649 43.8333 190.649 40.2152C190.649 36.5971 197.28 33.8869 198.785 33.2907C200.291 32.6945 206.922 36.0009 210.556 40.2152C214.19 44.4296 213.865 48.6575 217.486 54.6877C221.107 60.7178 233.759 89.9202 235.291 95.6793C236.824 101.438 238.6 104.718 238.302 107.442C238.003 110.165 223.52 125.817 219.9 130.045C216.279 134.272 202.406 148.731 202.406 148.731C202.406 148.731 197.28 174.045 195.775 183.097C194.269 192.149 195.164 217.15 195.164 217.15C195.164 217.15 178.58 213.532 162.89 211.73C147.2 209.927 130.018 203.897 127.902 203.897H125.787C125.787 203.897 137.558 189.425 137.558 187.311C137.558 185.631 137.164 154.924 137.015 142.593C132.635 137.985 126.438 131.427 124.2 128.811C120.579 124.584 106.096 108.919 105.798 106.208C105.5 103.498 107.317 100.205 108.822 94.4733Z" fill="white"/>
<mask id="mask4_538_4397" style="mask-type:luminance" maskUnits="userSpaceOnUse" x="105" y="32" width="134" height="186">
<path d="M108.822 94.4733C111.793 83.7268 115.723 73.2687 120.566 63.2248C124.241 55.4059 127.889 45.6085 133.557 39.0092C137.178 34.7949 143.823 31.4749 145.328 32.0847C146.833 32.6945 153.465 35.3911 153.465 39.0092C153.465 42.6273 151.051 42.6273 151.051 42.6273C151.051 42.6273 151.661 47.1533 149.844 48.9556C148.027 50.7579 138.683 50.1616 138.683 50.1616C137.014 52.6136 135.627 55.2455 134.547 58.0076C132.744 64.0243 131.143 65.2303 129.936 76.0846C128.743 84.7212 127.031 93.2782 124.81 101.71C125.973 102.424 126.998 103.342 127.835 104.42C129.638 106.534 141.097 117.971 141.097 117.971C144.412 119.541 147.844 120.851 151.363 121.887C154.45 122.846 157.438 124.099 160.286 125.627C162.144 125.41 164.015 125.207 165.019 125.207C167.134 125.207 181.902 127.917 181.902 127.917C185.316 125.888 188.957 124.269 192.751 123.093C196.269 122.057 199.702 120.747 203.016 119.177C203.016 119.177 214.475 107.726 216.279 105.626C217.116 104.548 218.14 103.63 219.303 102.916C217.082 94.4842 215.37 85.9272 214.177 77.2907C213.2 68.5367 210.678 58.5903 205.417 51.3677C205.417 51.3677 196.073 51.9775 194.256 50.1616C192.439 48.3458 193.063 43.8333 193.063 43.8333C193.063 43.8333 190.649 43.8333 190.649 40.2152C190.649 36.5971 197.28 33.8869 198.785 33.2907C200.291 32.6945 206.922 36.0009 210.556 40.2152C214.19 44.4296 213.865 48.6575 217.486 54.6877C221.107 60.7178 233.759 89.9202 235.291 95.6793C236.824 101.438 238.6 104.718 238.302 107.442C238.003 110.165 223.52 125.817 219.9 130.045C216.279 134.272 202.406 148.731 202.406 148.731C202.406 148.731 197.28 174.045 195.775 183.097C194.269 192.149 195.164 217.15 195.164 217.15C195.164 217.15 178.58 213.532 162.89 211.73C147.2 209.927 130.018 203.897 127.902 203.897H125.787C125.787 203.897 137.558 189.425 137.558 187.311C137.558 185.631 137.164 154.924 137.015 142.593C132.635 137.985 126.438 131.427 124.2 128.811C120.579 124.584 106.096 108.919 105.798 106.208C105.5 103.498 107.317 100.205 108.822 94.4733Z" fill="white"/>
</mask>
<g mask="url(#mask4_538_4397)">
<path d="M108.822 94.4733C111.793 83.7268 115.723 73.2687 120.566 63.2248C124.241 55.4059 127.889 45.6085 133.557 39.0092C137.178 34.7949 143.823 31.4749 145.328 32.0847C146.833 32.6945 153.465 35.3911 153.465 39.0092C153.465 42.6273 151.051 42.6273 151.051 42.6273C151.051 42.6273 151.661 47.1533 149.844 48.9556C148.027 50.7579 138.683 50.1616 138.683 50.1616C137.014 52.6136 135.627 55.2455 134.547 58.0076C132.744 64.0243 131.143 65.2303 129.936 76.0846C128.743 84.7212 127.031 93.2782 124.81 101.71C125.973 102.424 126.998 103.342 127.835 104.42C129.638 106.534 141.097 117.971 141.097 117.971C144.412 119.541 147.844 120.851 151.363 121.887C154.45 122.846 157.438 124.099 160.286 125.627C162.144 125.41 164.015 125.207 165.019 125.207C167.134 125.207 181.902 127.917 181.902 127.917C185.316 125.888 188.957 124.269 192.751 123.093C196.269 122.057 199.702 120.747 203.016 119.177C203.016 119.177 214.475 107.726 216.279 105.626C217.116 104.548 218.14 103.63 219.303 102.916C217.082 94.4842 215.37 85.9272 214.177 77.2907C213.2 68.5367 210.678 58.5903 205.417 51.3677C205.417 51.3677 196.073 51.9775 194.256 50.1616C192.439 48.3458 193.063 43.8333 193.063 43.8333C193.063 43.8333 190.649 43.8333 190.649 40.2152C190.649 36.5971 197.28 33.8869 198.785 33.2907C200.291 32.6945 206.922 36.0009 210.556 40.2152C214.19 44.4296 213.865 48.6575 217.486 54.6877C221.107 60.7178 233.759 89.9202 235.291 95.6793C236.824 101.438 238.6 104.718 238.302 107.442C238.003 110.165 223.52 125.817 219.9 130.045C216.279 134.272 202.406 148.731 202.406 148.731C202.406 148.731 197.28 174.045 195.775 183.097C194.269 192.149 195.164 217.15 195.164 217.15C195.164 217.15 178.58 213.532 162.89 211.73C147.2 209.927 130.018 203.897 127.902 203.897H125.787C125.787 203.897 137.558 189.425 137.558 187.311C137.558 185.631 137.164 154.924 137.015 142.593C132.635 137.985 126.438 131.427 124.2 128.811C120.579 124.584 106.096 108.919 105.798 106.208C105.5 103.498 107.317 100.205 108.822 94.4733Z" fill="#D9D9D9" stroke="#232D33" stroke-linecap="round" stroke-linejoin="round"/>
<path opacity="0.25" d="M193.971 189.086C194.88 184.858 196.087 160.439 197.592 152.607C199.097 144.775 202.718 141.766 204.833 138.446C206.949 135.126 212.97 130.316 220.523 122.185C228.077 114.054 234.993 107.13 233.772 101.1C232.945 96.9125 224.809 73.3338 219.927 59.3628C224.985 69.7293 234.03 90.8959 235.291 95.6794C236.796 101.411 238.6 104.718 238.302 107.442C238.003 110.165 223.52 125.817 219.9 130.045C216.279 134.273 202.406 148.731 202.406 148.731C202.406 148.731 197.28 174.045 195.775 183.097C195.168 187.942 194.883 192.822 194.92 197.705C194.161 193.843 193.673 190.441 193.971 189.086Z" fill="black"/>
<path opacity="0.25" d="M110.368 104.718C110.368 109.244 132.391 125.519 137.49 133.961C142.589 142.403 141.111 163.204 141.111 171.633C141.012 175.055 141.112 178.48 141.409 181.891L137.476 186.661C137.476 181.836 137.097 154.138 136.947 142.62C132.567 138.013 126.37 131.454 124.132 128.839C120.512 124.611 106.028 108.946 105.73 106.236C105.432 103.525 107.235 100.205 108.741 94.4734C111.711 83.7269 115.642 73.2687 120.484 63.2248C124.159 55.4059 127.807 45.6086 133.476 39.0093C133.476 39.0093 123.915 62.2221 118.179 77.5889C112.443 92.9557 110.368 100.205 110.368 104.718Z" fill="black"/>
</g>
<path d="M108.822 94.4733C111.793 83.7268 115.723 73.2686 120.566 63.2248C124.241 55.4059 127.889 45.6085 133.557 39.0092C137.178 34.7949 143.823 31.4749 145.328 32.0847C146.833 32.6945 153.465 35.3911 153.465 39.0092C153.465 42.6273 151.051 42.6273 151.051 42.6273C151.051 42.6273 151.661 47.1533 149.844 48.9556C148.027 50.7579 138.683 50.1616 138.683 50.1616C137.014 52.6136 135.627 55.2455 134.547 58.0076C132.744 64.0243 131.143 65.2303 129.936 76.0846C128.743 84.7212 127.031 93.2782 124.81 101.71C125.973 102.424 126.998 103.342 127.835 104.42C129.638 106.534 141.097 117.971 141.097 117.971C144.412 119.541 147.844 120.851 151.363 121.887C154.45 122.846 157.438 124.099 160.286 125.627C162.144 125.41 164.015 125.207 165.019 125.207C167.134 125.207 181.902 127.917 181.902 127.917C185.316 125.888 188.957 124.269 192.751 123.093C196.269 122.057 199.702 120.747 203.016 119.177C203.016 119.177 214.475 107.726 216.279 105.626C217.116 104.548 218.14 103.63 219.303 102.916C217.082 94.4842 215.37 85.9272 214.177 77.2907C213.2 68.5367 210.678 58.5903 205.417 51.3677C205.417 51.3677 196.073 51.9775 194.256 50.1616C192.439 48.3458 193.063 43.8333 193.063 43.8333C193.063 43.8333 190.649 43.8333 190.649 40.2152C190.649 36.5971 197.28 33.8869 198.785 33.2907C200.291 32.6945 206.922 36.0009 210.556 40.2152C214.19 44.4296 213.865 48.6575 217.486 54.6877C221.107 60.7178 233.759 89.9202 235.291 95.6793C236.824 101.438 238.6 104.718 238.302 107.442C238.003 110.165 223.52 125.817 219.9 130.045C216.279 134.272 202.406 148.731 202.406 148.731C202.406 148.731 197.28 174.045 195.775 183.097C194.269 192.149 195.164 217.15 195.164 217.15C195.164 217.15 178.58 213.532 162.89 211.73C147.2 209.927 130.018 203.897 127.902 203.897H125.787C125.787 203.897 137.558 189.425 137.558 187.311C137.558 185.631 137.164 154.924 137.015 142.593C132.635 137.985 126.438 131.427 124.2 128.811C120.579 124.584 106.096 108.919 105.798 106.208C105.5 103.498 107.317 100.205 108.822 94.4733Z" stroke="#232D33" stroke-linecap="round" stroke-linejoin="round"/>
<path d="M193.09 43.8335C193.09 43.8335 200.63 37.5052 201.226 40.2154C201.823 42.9256 196.697 46.5437 196.697 46.5437" stroke="#232D33" stroke-linecap="round" stroke-linejoin="round"/>
<path d="M203.328 43.2373C203.248 44.0285 203.324 44.8279 203.553 45.5895C203.783 46.3511 204.16 47.0601 204.664 47.6757C205.168 48.2913 205.788 48.8014 206.49 49.1769C207.192 49.5524 207.961 49.7858 208.753 49.8637" stroke="#232D33" stroke-linecap="round" stroke-linejoin="round"/>
<path d="M199.097 44.7411L205.132 41.7193L204.833 39.6188L203.03 38.7109" stroke="#232D33" stroke-linecap="round" stroke-linejoin="round"/>
<path d="M198.514 35.2285C198.213 36.8986 198.027 38.5874 197.958 40.283" stroke="#232D33" stroke-linecap="round" stroke-linejoin="round"/>
<path d="M195.151 36.0684C194.818 38.1146 194.818 40.2013 195.151 42.2476" stroke="#232D33" stroke-linecap="round" stroke-linejoin="round"/>
<path d="M192.059 37.478C191.925 38.4184 192.035 39.3774 192.379 40.2627C192.724 41.1481 193.291 41.9298 194.025 42.5325" stroke="#232D33" stroke-linecap="round" stroke-linejoin="round"/>
<path d="M151.051 42.6272C151.051 42.6272 140.582 39.917 142.087 42.9253C143.592 45.9336 148.42 46.8551 148.42 46.8551" stroke="#232D33" stroke-linecap="round" stroke-linejoin="round"/>
<path d="M135.754 47.1533C137.07 46.1107 138.488 45.2028 139.985 44.4432C141.49 43.8334 141.789 41.733 141.789 41.733C141.789 41.733 138.466 41.1367 138.466 39.6326C138.466 38.1284 140.88 36.9224 140.88 36.9224L141.192 38.4401" stroke="#232D33" stroke-linecap="round" stroke-linejoin="round"/>
<path d="M145.124 34.605C145.124 34.605 146.318 40.581 141.789 41.665" stroke="#232D33" stroke-linecap="round" stroke-linejoin="round"/>
<path d="M148.501 34.9438C148.501 34.9438 149.342 39.4428 146.535 41.7193" stroke="#232D33" stroke-linecap="round" stroke-linejoin="round"/>
<path d="M151.051 36.6377C151.051 36.6377 151.905 40.5675 149.94 41.9632" stroke="#232D33" stroke-linecap="round" stroke-linejoin="round"/>
<path d="M162.903 211.73C147.213 209.914 130.031 203.897 127.916 203.897H125.8C125.8 203.897 137.571 189.425 137.571 187.311C137.571 185.631 137.178 154.924 137.029 142.593L130.248 135.397C133.571 134.408 137.165 132.687 138.493 129.719C140.148 126.047 139.348 119.692 138.493 115.274L141.206 117.984C144.52 119.555 147.953 120.864 151.471 121.9C154.558 122.86 157.546 124.112 160.394 125.64C162.252 125.424 164.124 125.22 165.127 125.22C167.243 125.22 182.01 127.931 182.01 127.931C185.424 125.902 189.066 124.283 192.859 123.106C196.378 122.07 199.81 120.761 203.125 119.19L203.559 118.757C202.923 123.699 202.778 128.692 203.125 133.663C203.694 138.121 207.274 140.208 209.756 141.129C205.891 145.194 202.515 148.731 202.515 148.731C202.515 148.731 197.389 174.044 195.883 183.096C194.378 192.149 195.273 217.15 195.273 217.15C195.273 217.15 178.593 213.478 162.903 211.73Z" fill="#0085FF" stroke="#232D33" stroke-linecap="round" stroke-linejoin="round"/>
<path d="M169.466 155.696C170.704 154.367 171.837 152.944 172.857 151.441" stroke="#232D33" stroke-linecap="round" stroke-linejoin="round"/>
<path d="M137.571 187.311C143.398 180.408 149.745 173.962 156.557 168.028C160.042 165.06 162.849 162.485 165.073 160.29" stroke="#232D33" stroke-linecap="round" stroke-linejoin="round"/>
<path d="M188.031 114.19C188.031 114.19 189.672 110.897 193.239 104.325C196.805 97.7526 193.795 86.2614 180.356 81.8709C166.917 77.4804 158.428 85.7058 156.516 91.1804C154.604 96.655 156.245 102.685 157.343 105.978C157.993 107.921 158.358 109.947 158.428 111.995C159.135 111.146 159.967 110.41 160.896 109.813C162.822 108.458 166.103 93.9177 170.497 92.8336C174.891 91.7496 184.194 94.2294 184.953 101.005C185.713 107.78 185.835 118.296 188.031 114.19Z" fill="#232D33" stroke="#232D33" stroke-linecap="round" stroke-linejoin="round"/>
<path d="M159.526 110.897C159.526 110.897 157.886 106.249 155.689 108.444C153.492 110.64 154.604 115.22 155.973 117.198C157.343 119.177 158.428 118.025 159.255 115.843C159.744 114.241 159.837 112.544 159.526 110.897Z" fill="white"/>
<mask id="mask5_538_4397" style="mask-type:luminance" maskUnits="userSpaceOnUse" x="154" y="107" width="6" height="12">
<path d="M159.526 110.897C159.526 110.897 157.886 106.249 155.689 108.444C153.492 110.64 154.604 115.22 155.973 117.198C157.343 119.177 158.428 118.025 159.255 115.843C159.744 114.241 159.837 112.544 159.526 110.897Z" fill="white"/>
</mask>
<g mask="url(#mask5_538_4397)">
<path d="M159.526 110.897C159.526 110.897 157.886 106.249 155.689 108.444C153.492 110.64 154.604 115.22 155.973 117.198C157.343 119.177 158.428 118.025 159.255 115.843C159.744 114.241 159.837 112.544 159.526 110.897Z" fill="#D9D9D9" stroke="#232D33" stroke-linecap="round" stroke-linejoin="round"/>
</g>
<path d="M159.526 110.897C159.526 110.897 157.886 106.249 155.689 108.444C153.492 110.64 154.604 115.22 155.973 117.198C157.343 119.177 158.428 118.025 159.255 115.843C159.744 114.241 159.837 112.544 159.526 110.897Z" stroke="#232D33" stroke-linecap="round" stroke-linejoin="round"/>
<path d="M186.784 113.607C186.784 113.607 189.618 109.542 191.137 112.252C192.656 114.962 190.35 119.149 188.506 120.613C186.662 122.076 185.916 120.748 185.713 118.418C185.679 116.752 186.047 115.102 186.784 113.607Z" fill="white"/>
<mask id="mask6_538_4397" style="mask-type:luminance" maskUnits="userSpaceOnUse" x="185" y="111" width="7" height="11">
<path d="M186.784 113.607C186.784 113.607 189.618 109.542 191.137 112.252C192.656 114.962 190.35 119.149 188.506 120.613C186.662 122.076 185.916 120.748 185.713 118.418C185.679 116.752 186.047 115.102 186.784 113.607Z" fill="white"/>
</mask>
<g mask="url(#mask6_538_4397)">
<path d="M186.784 113.607C186.784 113.607 189.618 109.542 191.137 112.252C192.656 114.962 190.35 119.149 188.506 120.613C186.662 122.076 185.916 120.748 185.713 118.418C185.679 116.752 186.047 115.102 186.784 113.607Z" fill="#D9D9D9" stroke="#232D33" stroke-linecap="round" stroke-linejoin="round"/>
</g>
<path d="M186.784 113.607C186.784 113.607 189.618 109.542 191.137 112.252C192.656 114.962 190.35 119.149 188.506 120.613C186.662 122.076 185.916 120.748 185.713 118.418C185.679 116.752 186.047 115.102 186.784 113.607Z" stroke="#232D33" stroke-linecap="round" stroke-linejoin="round"/>
<path d="M183.095 126.508C183.219 130.451 182.947 134.396 182.282 138.284C181.694 141.804 180.87 145.281 179.814 148.691L169.941 139.381L157.614 145.954C157.614 145.954 155.689 133.365 159.527 127.877C163.364 122.388 175.976 121.86 179.258 123.811C180.683 124.483 181.981 125.395 183.095 126.508Z" fill="white" stroke="#232D33" stroke-linecap="round" stroke-linejoin="round"/>
<path d="M179.529 129.259C179.529 129.259 172.396 147.878 168.558 146.509C164.72 145.14 163.622 128.703 163.622 128.703C163.622 128.703 175.461 131.169 179.529 129.259Z" fill="white"/>
<mask id="mask7_538_4397" style="mask-type:luminance" maskUnits="userSpaceOnUse" x="163" y="128" width="17" height="19">
<path d="M179.529 129.259C179.529 129.259 172.396 147.878 168.558 146.509C164.72 145.14 163.622 128.703 163.622 128.703C163.622 128.703 175.461 131.169 179.529 129.259Z" fill="white"/>
</mask>
<g mask="url(#mask7_538_4397)">
<path d="M179.529 129.259C179.529 129.259 172.396 147.878 168.558 146.509C164.72 145.14 163.622 128.703 163.622 128.703C163.622 128.703 175.461 131.169 179.529 129.259Z" fill="#D9D9D9" stroke="#232D33" stroke-linecap="round" stroke-linejoin="round"/>
<path opacity="0.25" d="M179.529 129.259C179.529 129.259 172.396 147.878 168.558 146.509C164.72 145.14 163.622 128.703 163.622 128.703C163.622 128.703 175.461 131.169 179.529 129.259Z" fill="black"/>
</g>
<path d="M179.529 129.259C179.529 129.259 172.396 147.878 168.558 146.509C164.72 145.14 163.622 128.703 163.622 128.703C163.622 128.703 175.461 131.169 179.529 129.259Z" stroke="#232D33" stroke-linecap="round" stroke-linejoin="round"/>
<path d="M188.859 106.249C188.859 106.249 187.503 118.296 185.835 123.77C184.167 129.245 177.834 134.218 169.345 132.85C160.856 131.481 157.832 119.122 157.832 118.296C157.832 117.469 158.374 102.685 161.669 97.2105C164.965 91.7359 171.257 86.5323 180.031 90.6383C188.805 94.7442 189.673 103.241 188.859 106.249Z" fill="white"/>
<mask id="mask8_538_4397" style="mask-type:luminance" maskUnits="userSpaceOnUse" x="157" y="89" width="33" height="45">
<path d="M188.859 106.249C188.859 106.249 187.503 118.296 185.835 123.77C184.167 129.245 177.834 134.218 169.345 132.85C160.856 131.481 157.832 119.122 157.832 118.296C157.832 117.469 158.374 102.685 161.669 97.2105C164.965 91.7359 171.257 86.5323 180.031 90.6383C188.805 94.7442 189.673 103.241 188.859 106.249Z" fill="white"/>
</mask>
<g mask="url(#mask8_538_4397)">
<path d="M188.859 106.249C188.859 106.249 187.503 118.296 185.835 123.77C184.167 129.245 177.834 134.218 169.345 132.85C160.856 131.481 157.832 119.122 157.832 118.296C157.832 117.469 158.374 102.685 161.669 97.2105C164.965 91.7359 171.257 86.5323 180.031 90.6383C188.805 94.7442 189.673 103.241 188.859 106.249Z" fill="#D9D9D9" stroke="#232D33" stroke-linecap="round" stroke-linejoin="round"/>
<path opacity="0.25" d="M157.831 118.296C157.831 117.469 158.374 102.685 161.669 97.2102C162.325 96.1145 163.078 95.0804 163.92 94.1206C163.12 97.5354 158.971 115.924 162.252 122.198C165.873 129.136 173.711 129.746 180.953 126.128C186.377 123.418 187.869 107.685 188.316 99.7036C189.063 101.802 189.231 104.063 188.805 106.249C188.805 106.249 187.448 118.296 185.78 123.77C184.112 129.245 177.78 134.218 169.29 132.849C160.801 131.481 157.831 119.122 157.831 118.296Z" fill="black"/>
</g>
<path d="M188.859 106.249C188.859 106.249 187.503 118.296 185.835 123.77C184.167 129.245 177.834 134.218 169.345 132.85C160.856 131.481 157.832 119.122 157.832 118.296C157.832 117.469 158.374 102.685 161.669 97.2105C164.965 91.7359 171.257 86.5323 180.031 90.6383C188.805 94.7442 189.673 103.241 188.859 106.249Z" stroke="#232D33" stroke-linecap="round" stroke-linejoin="round"/>
<path d="M181.061 113.295C178.658 113.998 176.112 114.059 173.678 113.472C171.244 112.884 169.006 111.67 167.188 109.948C165.968 110.355 166.429 117.713 173.169 118.783C174.938 119.056 176.744 118.639 178.214 117.617C179.683 116.595 180.703 115.048 181.061 113.295Z" fill="white" stroke="#232D33" stroke-linecap="round" stroke-linejoin="round"/>
<path d="M177.169 106.778C177.169 106.778 178.851 109.122 178.01 109.949C177.169 110.775 173.833 110.951 172.152 109.122C170.47 107.293 173.155 105.612 173.155 105.612" stroke="#232D33" stroke-linecap="round" stroke-linejoin="round"/>
<path d="M183.597 107.889C183.597 107.889 182.77 105.179 178.39 105.179" stroke="#232D33" stroke-linecap="round" stroke-linejoin="round"/>
<path d="M170.768 104.054C169.967 103.17 168.871 102.609 167.686 102.474C166.5 102.34 165.306 102.641 164.327 103.322" stroke="#232D33" stroke-linecap="round" stroke-linejoin="round"/>
<path d="M178.986 99.6498C178.986 99.6498 185.251 98.4031 186.024 104.081" stroke="#232D33" stroke-width="2" stroke-linecap="round" stroke-linejoin="round"/>
<path d="M172.342 98.9451C172.342 98.9451 167.921 95.3676 163.812 99.2025" stroke="#232D33" stroke-width="2" stroke-linecap="round" stroke-linejoin="round"/>
<path d="M328.007 117.682C328.007 117.682 328.007 111.299 334.882 106.638C341.758 101.976 358.234 104.673 364.377 112.532C370.52 120.392 371.022 126.083 378.142 128.252C385.261 130.42 401.494 132.94 412.776 144.702C424.059 156.465 419.163 180.558 413.997 182.523C408.83 184.488 415.231 180.802 414.498 174.393C414.364 172.625 413.742 170.929 412.7 169.493C411.659 168.058 410.239 166.939 408.599 166.262C408.599 166.262 415.231 176.818 401.222 190.572C387.214 204.327 371.727 201.142 358.695 198.432C345.663 195.722 329.702 186.155 328.468 174.853C327.234 163.552 331.424 157.169 328.468 152.02C325.512 146.871 314.704 147.589 313.226 137.778C311.747 127.967 315.721 114.985 328.007 117.682Z" fill="#232D33" stroke="#232D33" stroke-linecap="round" stroke-linejoin="round"/>
<path d="M280.666 293.18C280.666 293.18 273.804 284.508 271.174 284.223C268.543 283.939 264.637 289.901 262.928 294.454C261.22 299.007 257.246 308.357 257.246 312.911C257.246 320.865 260.664 323.413 262.074 321.99C263.484 320.567 267.2 311.772 269.18 310.065C270.442 309.012 271.911 308.236 273.492 307.788C273.492 307.788 277.859 296.744 280.666 293.18Z" fill="white" stroke="#232D33" stroke-linecap="round" stroke-linejoin="round"/>
<path d="M273.709 286.392C273.709 286.392 265.396 294.698 262.44 302.653C259.484 310.607 258.575 318.372 261.247 321.624" stroke="#232D33" stroke-linecap="round" stroke-linejoin="round"/>
<path d="M295.962 354.661C295.962 354.661 287.731 355.23 284.883 355.515C282.035 355.799 282.035 362.616 283.175 367.44C284.314 372.264 285.738 375.394 284.531 380.787C283.324 386.181 286.524 392.143 288.233 394.704C289.941 397.265 293.657 396.696 293.915 394.704C294.172 392.712 293.06 381.072 297.034 374.54C301.007 368.009 300.519 359.241 295.962 354.661Z" fill="white" stroke="#232D33" stroke-linecap="round" stroke-linejoin="round"/>
<path d="M288.246 355.176C286.511 358.341 285.886 361.995 286.47 365.556C287.365 371.776 286.171 381.574 286.171 383.945C286.171 386.316 289.44 395.504 290.619 395.802" stroke="#232D33" stroke-linecap="round" stroke-linejoin="round"/>
<path d="M258.697 62.4754C260.176 62.4754 266.074 63.9525 266.563 65.6734C267.051 67.3944 267.783 84.0892 267.783 84.0892C267.783 84.0892 278.117 103.738 281.547 111.11C284.978 118.482 294.091 136.166 294.091 136.166L316.941 159.988C316.941 159.988 320.386 161.709 326.285 165.137C326.841 165.463 327.424 165.829 328.007 166.194L338.856 168.579L348.159 166.818C352.572 163.38 357.166 160.182 361.923 157.237C367.822 153.809 371.266 152.088 371.266 152.088L394.117 128.265C394.117 128.265 403.216 110.649 406.66 103.21C410.105 95.7701 420.425 76.189 420.425 76.189C420.425 76.189 421.157 59.4942 421.645 57.7732C422.133 56.0523 428.046 54.5752 429.511 54.5752C430.975 54.5752 433.687 62.4348 432.711 64.1557C431.735 65.8767 429.05 65.8631 429.05 65.8631C429.175 67.826 429.175 69.7949 429.05 71.7578C428.805 72.991 425.117 75.4437 425.117 75.4437C425.117 75.4437 419.95 96.8136 416.519 111.543C413.088 126.273 408.654 136.111 406.688 137.832C404.721 139.553 385.302 159.189 381.369 165.829C378.196 170.742 374.484 175.287 370.304 179.38C370.304 179.38 372.514 190.22 372.514 196.074C372.514 201.928 366.615 214.49 364.649 220.141C362.682 225.792 360.228 252.067 360.228 252.812C360.228 253.558 359.007 269.751 359.007 269.751C359.007 269.751 372.27 298.736 376.447 319.361C380.624 339.986 378.671 351.788 369.083 356.206C359.496 360.624 315.992 366.762 314.758 368.239C313.524 369.716 312.548 370.692 310.826 370.692C309.103 370.692 306.893 369.716 305.401 370.692C303.909 371.668 303.937 372.413 302.214 372.413C301.392 372.524 300.607 372.827 299.923 373.298C299.24 373.769 298.678 374.394 298.282 375.123C297.793 376.099 294.837 374.134 293.861 366.762C292.884 359.391 294.349 355.921 295.827 355.718C297.305 355.515 297.048 353.008 299.502 353.008C302.142 353.176 304.769 353.506 307.367 353.997C308.648 353.612 309.967 353.367 311.3 353.266C312.778 353.266 314.5 352.032 315.49 351.788C316.48 351.545 332.686 344.905 332.686 344.905L333.309 344.579C316.901 335.229 293.63 318.683 293.63 318.683C293.63 318.683 286.945 318.263 284.016 315.756C282.03 313.982 280.214 312.027 278.591 309.916L273.574 307.829C273.637 304.547 274.655 301.355 276.503 298.642C279.418 294.888 280.68 293.221 280.68 293.221C280.68 293.221 288.613 296.975 291.121 297.815C293.63 298.655 297.387 299.062 299.475 301.149C301.563 303.235 306.988 307.409 306.988 307.409L325.363 317.003C325.363 317.003 301.97 286.961 299.055 274.44C296.546 263.707 300.411 251.85 306.811 243.191C311.653 236.687 318.447 231.727 323.6 225.426C326.068 222.431 327.953 220.209 327.777 218.921C327.492 216.929 325.159 206.902 323.044 198.364L316.453 185.735C314.826 184.041 307.557 174.894 306.879 173.729C302.947 167.089 283.527 147.44 281.561 145.719C279.595 143.998 275.174 134.187 271.729 119.444C268.285 104.7 263.132 83.3439 263.132 83.3439C263.132 83.3439 259.443 80.8912 259.199 79.658C259.074 77.6951 259.074 75.7263 259.199 73.7634C259.199 73.7634 256.487 73.7634 255.511 72.0424C254.534 70.3214 257.219 62.4754 258.697 62.4754Z" fill="white" stroke="#232D33" stroke-linecap="round" stroke-linejoin="round"/>
<path d="M280.666 293.181C280.666 293.181 288.599 296.934 291.108 297.774C293.617 298.615 297.373 299.021 299.461 301.108C301.55 303.195 306.974 307.369 306.974 307.369L325.349 316.963C325.349 316.963 301.957 286.92 299.041 274.399C296.532 263.667 300.397 251.81 306.798 243.151C309.238 240.02 311.932 237.097 314.853 234.41C319.986 238.885 325.561 242.826 331.492 246.172C340.165 251.254 350.248 253.402 360.241 252.297C360.241 252.555 360.241 252.717 360.241 252.772C360.241 253.503 359.021 269.71 359.021 269.71C359.021 269.71 372.283 298.696 376.46 319.32C380.637 339.945 378.684 351.748 369.097 356.166C359.509 360.583 316.006 366.722 314.772 368.199C313.538 369.676 312.561 370.652 310.839 370.652C309.117 370.652 306.906 369.676 305.415 370.652C303.923 371.627 303.95 372.372 302.228 372.372C301.405 372.483 300.62 372.786 299.937 373.257C299.253 373.728 298.691 374.354 298.295 375.083C297.807 376.058 294.851 374.093 293.874 366.722C292.898 359.35 294.362 355.881 295.841 355.678C297.319 355.474 297.061 352.968 299.516 352.968C302.155 353.136 304.782 353.466 307.381 353.957C308.661 353.571 309.98 353.326 311.314 353.225C312.792 353.225 314.514 351.992 315.504 351.748C316.494 351.504 332.699 344.864 332.699 344.864L333.323 344.539C316.914 335.189 293.644 318.643 293.644 318.643C293.644 318.643 286.958 318.223 284.029 315.716C282.044 313.941 280.228 311.986 278.605 309.875L273.587 307.789C273.651 304.507 274.668 301.315 276.516 298.601C279.405 294.847 280.666 293.181 280.666 293.181Z" fill="#232D33" stroke="#232D33" stroke-linecap="round" stroke-linejoin="round"/>
<path d="M343.426 268.03L338.598 270.306C338.598 270.306 358.777 318.873 361.652 332.79C364.527 346.707 361.082 353.523 355.685 353.523C350.288 353.523 334.937 345.568 334.937 345.568" stroke="white" stroke-linecap="round" stroke-linejoin="round"/>
<path d="M325.349 316.962C325.349 316.962 337.459 334.85 340.904 339.037" stroke="white" stroke-linecap="round" stroke-linejoin="round"/>
<path d="M423.856 61.2015C423.856 61.2015 428.778 54.3176 429.511 52.8405C430.243 51.3635 431.721 55.5507 430.501 58.0034C429.719 59.5284 428.724 60.9339 427.544 62.1771C427.544 62.1771 429.511 68.0718 426.568 70.5245" fill="white"/>
<path d="M423.856 61.2015C423.856 61.2015 428.778 54.3176 429.511 52.8405C430.243 51.3635 431.721 55.5507 430.501 58.0034C429.719 59.5284 428.724 60.9338 427.544 62.1771C427.544 62.1771 429.511 68.0718 426.568 70.5245" stroke="#232D33" stroke-linecap="round" stroke-linejoin="round"/>
<path d="M265.749 70.4023C265.749 70.4023 260.84 63.5319 260.094 62.0549C259.348 60.5778 257.884 64.7651 259.118 67.2178C259.897 68.7406 260.888 70.1457 262.06 71.3915C262.06 71.3915 260.094 77.2862 263.05 79.7389" fill="white"/>
<path d="M265.749 70.4023C265.749 70.4023 260.84 63.5319 260.094 62.0549C259.348 60.5778 257.884 64.7651 259.118 67.2178C259.897 68.7406 260.888 70.1457 262.06 71.3915C262.06 71.3915 260.094 77.2862 263.05 79.7389" stroke="#232D33" stroke-linecap="round" stroke-linejoin="round"/>
<path d="M370.276 179.339C370.276 179.339 372.487 190.18 372.487 196.034C372.487 201.888 366.588 214.45 364.621 220.1C362.655 225.751 360.201 252.026 360.201 252.772C360.201 252.975 360.106 254.425 359.956 256.403C351.264 258.829 333.336 259.656 311.964 237.269C315.843 233.326 320.101 229.654 323.586 225.385C326.054 222.39 327.939 220.168 327.763 218.881C327.478 216.889 325.146 206.861 323.03 198.324L316.439 185.694C314.812 184.001 307.544 174.854 306.865 173.688C302.933 167.048 283.514 147.399 281.547 145.678C279.581 143.958 275.16 134.147 271.716 119.403C270.454 113.983 269.003 107.627 267.552 101.787C270.325 101.211 273.008 100.263 275.526 98.9683C277.899 103.603 280.232 108.237 281.547 111.056C284.992 118.428 294.091 136.112 294.091 136.112L316.941 159.934C316.941 159.934 320.386 161.655 326.285 165.083C326.841 165.409 327.424 165.775 328.007 166.14L338.856 168.525L348.158 166.818C352.572 163.38 357.166 160.182 361.923 157.237C367.822 153.809 371.266 152.088 371.266 152.088L394.116 128.266C394.116 128.266 403.216 110.649 406.66 103.21C408.247 99.822 411.284 93.819 414.105 88.3037C416.481 89.3014 418.907 90.1743 421.374 90.919C419.787 97.5048 417.984 105.134 416.492 111.517C413.047 126.26 408.627 136.084 406.66 137.805C404.694 139.526 385.275 159.162 381.342 165.802C378.168 170.71 374.456 175.251 370.276 179.339Z" fill="#0085FF"/>
<mask id="mask9_538_4397" style="mask-type:luminance" maskUnits="userSpaceOnUse" x="267" y="88" width="155" height="170">
<path d="M370.276 179.339C370.276 179.339 372.487 190.18 372.487 196.034C372.487 201.888 366.588 214.45 364.621 220.1C362.655 225.751 360.201 252.026 360.201 252.772C360.201 252.975 360.106 254.425 359.956 256.403C351.264 258.829 333.336 259.656 311.964 237.269C315.843 233.326 320.101 229.654 323.586 225.385C326.054 222.39 327.939 220.168 327.763 218.881C327.478 216.889 325.146 206.861 323.03 198.324L316.439 185.694C314.812 184.001 307.544 174.854 306.865 173.688C302.933 167.048 283.514 147.399 281.547 145.678C279.581 143.958 275.16 134.147 271.716 119.403C270.454 113.983 269.003 107.627 267.552 101.787C270.325 101.211 273.008 100.263 275.526 98.9683C277.899 103.603 280.232 108.237 281.547 111.056C284.992 118.428 294.091 136.112 294.091 136.112L316.941 159.934C316.941 159.934 320.386 161.655 326.285 165.083C326.841 165.409 327.424 165.775 328.007 166.14L338.856 168.525L348.158 166.818C352.572 163.38 357.166 160.182 361.923 157.237C367.822 153.809 371.266 152.088 371.266 152.088L394.116 128.266C394.116 128.266 403.216 110.649 406.66 103.21C408.247 99.822 411.284 93.819 414.105 88.3037C416.481 89.3014 418.907 90.1743 421.374 90.919C419.787 97.5048 417.984 105.134 416.492 111.517C413.047 126.26 408.627 136.084 406.66 137.805C404.694 139.526 385.275 159.162 381.342 165.802C378.168 170.71 374.456 175.251 370.276 179.339Z" fill="white"/>
</mask>
<g mask="url(#mask9_538_4397)">
<path d="M369.598 152.928C370.683 152.359 371.266 152.075 371.266 152.075L372.622 150.652L383.702 162.495C382.909 163.497 382.166 164.537 381.478 165.612L369.598 152.928Z" fill="#232D33"/>
<path d="M379.973 142.995L382.59 140.285L394.795 149.92C393.94 150.828 393.073 151.749 392.232 152.63L379.973 142.995Z" fill="#232D33"/>
<path d="M360.228 158.254L361.923 157.224L363.51 156.303L377.071 171.832C376.23 172.876 375.403 173.851 374.616 174.732L360.228 158.254Z" fill="#232D33"/>
<path d="M390.862 131.585L404.965 139.391L402.253 142.101L388.231 134.323L390.862 131.585Z" fill="#232D33"/>
<path d="M356.254 160.883L362.126 167.428C362.395 167.512 362.64 167.655 362.845 167.848C363.103 168.1 363.274 168.427 363.333 168.783L371.605 177.998C370.792 178.838 370.249 179.353 370.249 179.353C370.249 179.353 370.656 181.331 371.117 184.069L369.612 181.792C365.937 183.364 355.712 186.196 329.729 186.196C327.071 186.196 324.246 186.164 321.254 186.101C320.981 186.095 320.713 186.03 320.467 185.911C319.543 186.651 318.463 187.17 317.307 187.429L316.412 185.708C316.087 185.369 315.531 184.719 314.853 183.906C315.304 183.935 315.757 183.935 316.209 183.906C320.888 183.337 323.749 173.377 324.983 164.42L326.339 165.165C326.895 165.49 327.478 165.856 328.061 166.222L328.549 166.33C328.346 167.685 328.116 169.04 327.817 170.396C345.785 175.016 355.129 171.263 358.614 169.162L353.19 163.146C354.125 162.373 355.17 161.628 356.254 160.883ZM343.616 176.304C337.967 176.225 332.35 175.442 326.895 173.973C326.144 176.914 324.999 179.74 323.491 182.375C351.481 182.822 363.048 180.125 367.171 178.689L361.109 171.913C358.533 173.594 353.027 176.304 343.616 176.304Z" fill="#232D33"/>
<path d="M404.016 108.671L415.963 113.725C415.638 114.999 415.326 116.219 415 117.411L402.334 111.991L404.016 108.671Z" fill="#232D33"/>
<path d="M409.535 97.3018L419.028 100.811C418.743 102.045 418.445 103.264 418.16 104.484L407.867 100.689L409.535 97.3018Z" fill="#232D33"/>
<path d="M396.652 123.292C397.181 122.276 397.751 121.138 398.361 119.945L411.705 127.764C411.23 129.052 410.769 130.23 410.349 131.287L396.652 123.292Z" fill="#232D33"/>
<path d="M288.246 124.62C288.843 125.826 289.44 127.005 290.009 128.116C286.307 131.463 282.049 135.136 277.628 138.51C277.167 137.399 276.706 136.179 276.272 134.838C280.517 131.504 284.666 127.886 288.246 124.62Z" fill="#232D33"/>
<path d="M327.058 215.398C326.814 214.273 326.515 212.932 326.176 211.468C345.962 214.179 360.513 211.807 368.758 209.571C368.174 211.075 367.591 212.552 367.022 213.948C359.392 215.713 351.582 216.578 343.751 216.523C338.168 216.514 332.592 216.138 327.058 215.398Z" fill="#232D33"/>
<path d="M283.676 115.46C280.091 118.073 276.375 120.501 272.543 122.737C272.258 121.653 271.987 120.541 271.716 119.403C271.716 119.241 271.716 119.064 271.607 118.902C275.19 116.782 278.662 114.48 282.008 112.004C282.483 113.034 283.053 114.2 283.676 115.46Z" fill="#232D33"/>
<path d="M372.473 195.424C372.473 195.628 372.473 195.844 372.473 196.034C372.447 197.097 372.315 198.154 372.08 199.191C364.066 198.595 347.481 198.216 323.885 201.902C323.6 200.709 323.302 199.517 323.017 198.351V198.229C347.331 194.367 364.242 194.774 372.473 195.424Z" fill="#232D33"/>
<path d="M316.63 232.689C317.565 231.795 318.474 230.887 319.342 229.979C333.486 239.465 350.315 243.34 360.906 244.885C360.757 246.24 360.635 247.595 360.526 248.679C349.46 247.121 331.669 243.069 316.63 232.689Z" fill="#232D33"/>
<path d="M362.899 228.841C362.723 230.06 362.547 231.348 362.37 232.662C361.014 232.662 359.441 232.662 357.814 232.662C345.561 232.786 333.359 231.064 321.62 227.553C322.284 226.821 322.976 226.09 323.586 225.317L324.319 224.437C338.72 228.746 353.786 229.152 362.899 228.841Z" fill="#232D33"/>
<path d="M296.871 138.998C293.63 143.063 290.091 146.979 286.565 150.638L283.853 147.928C287.378 144.228 290.972 140.231 294.2 136.233L296.871 138.998Z" fill="#232D33"/>
<path d="M295.813 160.354L293.237 157.644C297.353 154.497 301.094 150.887 304.384 146.885L307.015 149.595C303.693 153.587 299.936 157.196 295.813 160.354Z" fill="#232D33"/>
<path d="M306.866 173.688C306.422 172.948 305.938 172.233 305.415 171.547C307.517 167.59 310.581 161.709 313.294 156.113L316.006 159.013C313.009 165.151 309.7 171.425 307.761 175.016C307.34 174.366 307.001 173.892 306.866 173.688Z" fill="#232D33"/>
<path opacity="0.25" d="M267.905 101.774C273.709 114.566 284.802 139.012 286.999 143.876C289.996 150.543 313.66 174.515 317.66 176.846C321.661 179.177 323.993 184.841 325.661 190.83C327.248 196.535 331.845 201.034 332.279 207.2C334.557 205.465 339.059 204.016 345.324 203.487C357.326 202.484 368.649 205.493 368.649 194.503C368.649 183.513 361.652 172.821 361.313 169.515C360.974 166.208 367.646 172.225 370.982 169.854C374.318 167.482 396.978 141.546 403.65 133.266C407.894 127.954 415.434 105.974 420.343 90.7295L421.374 91.0547C419.787 97.6405 417.984 105.27 416.492 111.652C413.048 126.396 408.627 136.22 406.66 137.927C404.694 139.635 385.275 159.297 381.342 165.937C378.168 170.851 374.457 175.396 370.276 179.488C370.276 179.488 372.487 190.329 372.487 196.183C372.487 202.037 366.588 214.599 364.622 220.25C362.655 225.9 360.201 252.176 360.201 252.921C360.201 253.124 360.106 254.574 359.957 256.553C358.756 256.883 357.538 257.145 356.309 257.339C356.539 247.04 358.248 225.575 355.319 220.886C352.132 215.791 336.754 215.561 332.265 212.648C332.075 218.084 330.129 223.313 326.719 227.554C324.291 230.738 318.758 235.088 313.456 238.896L312.019 237.432C315.897 233.489 320.155 229.817 323.64 225.548C326.109 222.553 327.993 220.331 327.817 219.044C327.532 217.052 325.2 207.024 323.084 198.487L316.494 185.857C314.867 184.163 307.598 175.016 306.92 173.851C302.987 167.211 283.568 147.562 281.602 145.841C279.635 144.12 275.214 134.309 271.77 119.566C270.509 114.146 269.058 107.79 267.607 101.95L267.905 101.774Z" fill="black"/>
</g>
<path d="M370.276 179.339C370.276 179.339 372.487 190.18 372.487 196.034C372.487 201.888 366.588 214.45 364.621 220.1C362.655 225.751 360.201 252.026 360.201 252.772C360.201 252.975 360.106 254.425 359.956 256.403C351.264 258.829 333.336 259.656 311.964 237.269C315.843 233.326 320.101 229.654 323.586 225.385C326.054 222.39 327.939 220.168 327.763 218.881C327.478 216.889 325.146 206.861 323.03 198.324L316.439 185.694C314.812 184.001 307.544 174.854 306.865 173.688C302.933 167.048 283.514 147.399 281.547 145.678C279.581 143.958 275.16 134.147 271.716 119.403C270.454 113.983 269.003 107.627 267.552 101.787C270.325 101.211 273.008 100.263 275.526 98.9683C277.899 103.603 280.232 108.237 281.547 111.056C284.992 118.428 294.091 136.112 294.091 136.112L316.941 159.934C316.941 159.934 320.386 161.655 326.285 165.083C326.841 165.409 327.424 165.775 328.007 166.14L338.856 168.525L348.158 166.818C352.572 163.38 357.166 160.182 361.923 157.237C367.822 153.809 371.266 152.088 371.266 152.088L394.116 128.266C394.116 128.266 403.216 110.649 406.66 103.21C408.247 99.822 411.284 93.819 414.105 88.3037C416.481 89.3014 418.907 90.1743 421.374 90.919C419.787 97.5048 417.984 105.134 416.492 111.517C413.047 126.26 408.627 136.084 406.66 137.805C404.694 139.526 385.275 159.162 381.342 165.802C378.168 170.71 374.456 175.251 370.276 179.339Z" stroke="#232D33" stroke-linecap="round" stroke-linejoin="round"/>
<path d="M350.613 147.643C350.613 147.643 350.369 163.118 351.603 166.804C352.837 170.49 359.74 177.645 356.756 183.512C353.773 189.38 342.992 182.767 339.127 175.653C335.262 168.539 337.147 166.316 337.147 166.316V155.476L350.613 147.643Z" fill="white"/>
<mask id="mask10_538_4397" style="mask-type:luminance" maskUnits="userSpaceOnUse" x="336" y="147" width="22" height="39">
<path d="M350.613 147.643C350.613 147.643 350.369 163.118 351.603 166.804C352.837 170.49 359.74 177.645 356.756 183.512C353.773 189.38 342.992 182.767 339.127 175.653C335.262 168.539 337.147 166.316 337.147 166.316V155.476L350.613 147.643Z" fill="white"/>
</mask>
<g mask="url(#mask10_538_4397)">
<path d="M337.093 155.503L350.653 147.643C350.653 147.643 350.409 163.118 351.643 166.804C351.823 167.314 352.045 167.808 352.308 168.281C349.733 169.113 346.971 169.174 344.361 168.457C341.618 167.302 339.153 165.574 337.133 163.389L337.093 155.503Z" fill="#0085FF"/>
<path opacity="0.5" d="M337.093 155.503L350.653 147.643C350.653 147.643 350.409 163.118 351.643 166.804C351.823 167.314 352.045 167.808 352.308 168.281C349.733 169.113 346.971 169.174 344.361 168.457C341.618 167.302 339.153 165.574 337.133 163.389L337.093 155.503Z" fill="white"/>
</g>
<path d="M350.613 147.643C350.613 147.643 350.369 163.118 351.603 166.804C352.837 170.49 359.74 177.645 356.756 183.512C353.773 189.38 342.992 182.767 339.127 175.653C335.262 168.539 337.147 166.316 337.147 166.316V155.476L350.613 147.643Z" stroke="#232D33" stroke-linecap="round" stroke-linejoin="round"/>
<path d="M353.325 137.331C353.325 137.331 357.99 132.913 359.224 136.111C360.458 139.309 357.258 143.971 355.536 144.458L353.813 144.946C353.05 148.447 351.349 151.674 348.891 154.283C344.958 158.213 340.537 160.178 335.628 157.725C330.719 155.272 326.773 149.12 325.553 141.762C324.81 138.126 324.559 134.407 324.807 130.704C324.807 129.471 327.017 120.636 333.418 118.427C339.819 116.218 339.073 118.915 343.982 124.566C347.38 128.606 350.502 132.87 353.325 137.331Z" fill="white"/>
<mask id="mask11_538_4397" style="mask-type:luminance" maskUnits="userSpaceOnUse" x="324" y="117" width="36" height="42">
<path d="M353.325 137.331C353.325 137.331 357.99 132.913 359.224 136.111C360.458 139.309 357.258 143.971 355.536 144.458L353.813 144.946C353.05 148.447 351.349 151.674 348.891 154.283C344.958 158.213 340.537 160.178 335.628 157.725C330.719 155.272 326.773 149.12 325.553 141.762C324.81 138.126 324.559 134.407 324.807 130.704C324.807 129.471 327.017 120.636 333.418 118.427C339.819 116.218 339.073 118.915 343.982 124.566C347.38 128.606 350.502 132.87 353.325 137.331Z" fill="white"/>
</mask>
<g mask="url(#mask11_538_4397)">
<path d="M326.149 126.165C325.742 130.23 325.064 140.773 327.993 145.827C331.655 152.142 335.33 158.145 342.653 155.151C349.976 152.156 352.322 144.486 352.322 144.486C352.322 144.486 354.315 144.825 357.326 142.155C357.634 141.867 357.992 141.637 358.383 141.478C357.788 142.76 356.787 143.812 355.536 144.472L353.813 144.96C353.05 148.461 351.348 151.688 348.891 154.297C344.958 158.227 340.537 160.192 335.628 157.739C330.719 155.286 326.773 149.134 325.552 141.776C324.81 138.14 324.559 134.421 324.807 130.718C325.025 129.142 325.477 127.607 326.149 126.165Z" fill="#0085FF"/>
<path opacity="0.5" d="M326.149 126.165C325.742 130.23 325.064 140.773 327.993 145.827C331.655 152.142 335.33 158.145 342.653 155.151C349.976 152.156 352.322 144.486 352.322 144.486C352.322 144.486 354.315 144.825 357.326 142.155C357.634 141.867 357.992 141.637 358.383 141.478C357.788 142.76 356.787 143.812 355.536 144.472L353.813 144.96C353.05 148.461 351.348 151.688 348.891 154.297C344.958 158.227 340.537 160.192 335.628 157.739C330.719 155.286 326.773 149.134 325.552 141.776C324.81 138.14 324.559 134.421 324.807 130.718C325.025 129.142 325.477 127.607 326.149 126.165Z" fill="white"/>
</g>
<path d="M353.325 137.331C353.325 137.331 357.99 132.913 359.224 136.111C360.458 139.309 357.258 143.971 355.536 144.458L353.813 144.946C353.05 148.447 351.349 151.674 348.891 154.283C344.958 158.213 340.537 160.178 335.628 157.725C330.719 155.272 326.773 149.12 325.553 141.762C324.81 138.126 324.559 134.407 324.807 130.704C324.807 129.471 327.017 120.636 333.418 118.427C339.819 116.218 339.073 118.915 343.982 124.566C347.38 128.606 350.502 132.87 353.325 137.331Z" stroke="#232D33" stroke-linecap="round" stroke-linejoin="round"/>
<path d="M332.916 132.425C332.916 132.425 334.638 135.61 333.906 136.355C333.174 137.1 330.706 138.564 331.94 139.296C333.104 139.798 334.36 140.052 335.628 140.041" stroke="#232D33" stroke-linecap="round" stroke-linejoin="round"/>
<path d="M342.748 141.071C342.748 141.071 339.805 144.513 330.462 143.28C330.462 143.28 336.117 148.93 338.598 148.93C341.08 148.93 342.748 141.071 342.748 141.071Z" stroke="#232D33" stroke-linecap="round" stroke-linejoin="round"/>
<path d="M344.47 133.157C344.47 133.157 341.025 131.938 339.046 133.903" stroke="#232D33" stroke-linecap="round" stroke-linejoin="round"/>
<path d="M332.184 135.122C332.184 135.122 328.251 133.903 327.519 136.599" stroke="#232D33" stroke-linecap="round" stroke-linejoin="round"/>
<path d="M344.714 128.984C343.943 128.093 342.909 127.472 341.76 127.209C340.612 126.945 339.409 127.055 338.327 127.52" stroke="#232D33" stroke-linecap="round" stroke-linejoin="round"/>
<path d="M331.695 130.23C331.695 130.23 328.495 127.276 326.271 132.683" stroke="#232D33" stroke-linecap="round" stroke-linejoin="round"/>
</g>
<defs>
<filter id="filter0_dd_538_4397" x="0.4375" y="25.5122" width="518.956" height="405.407" filterUnits="userSpaceOnUse" color-interpolation-filters="sRGB">
<feFlood flood-opacity="0" result="BackgroundImageFix"/>
<feColorMatrix in="SourceAlpha" type="matrix" values="0 0 0 0 0 0 0 0 0 0 0 0 0 0 0 0 0 0 127 0" result="hardAlpha"/>
<feOffset dy="4"/>
<feGaussianBlur stdDeviation="5"/>
<feColorMatrix type="matrix" values="0 0 0 0 0 0 0 0 0 0 0 0 0 0 0 0 0 0 0.08 0"/>
<feBlend mode="normal" in2="BackgroundImageFix" result="effect1_dropShadow_538_4397"/>
<feColorMatrix in="SourceAlpha" type="matrix" values="0 0 0 0 0 0 0 0 0 0 0 0 0 0 0 0 0 0 127 0" result="hardAlpha"/>
<feOffset dy="1"/>
<feGaussianBlur stdDeviation="2"/>
<feColorMatrix type="matrix" values="0 0 0 0 0 0 0 0 0 0 0 0 0 0 0 0 0 0 0.04 0"/>
<feBlend mode="normal" in2="effect1_dropShadow_538_4397" result="effect2_dropShadow_538_4397"/>
<feBlend mode="normal" in="SourceGraphic" in2="effect2_dropShadow_538_4397" result="shape"/>
</filter>
</defs>
</svg>
